<svg xmlns="http://www.w3.org/2000/svg" width="419" height="288.7" overflow="visible"><style>.st2{opacity:.3;fill:#3c415c;enable-background:new}</style><path id="Rectángulo_100_1_" opacity=".3" fill="#301b3f" d="M0 156.1h419v132.6H0z"/><path id="Unión_244_1_" d="M396.8 281.7l.9.5v-.7l-1.9-2.3.8.2-.2-.4 1.3.6v-.7l-2.7-2.3 1.1.2-.3-.4 1.9.6v-1l-3.4-2.3 1.4.2-.4-.4 2.4.6v-.6l-4.1-2.6 1.7.3-.5-.5 2.8.6v-1.1l-4.6-2.7 1.9.3-.6-.5 3.2.7v-1l-5-3.1 2.1.3-.6-.6 3.5.8V263l-5.5-3.1-4.4 2.4h3.3l-1.8 3.2h1l-1.7 3.2h.9l-1.5 2.8h.8l-1.7 3.2h.7l-2.2 4-2.1-4h.7l-1.7-3.2h.8l-1.5-2.8h.9L381 266l-2.5 1.4-12.4-6.9-.5 2.2h1.5l-4.2 17-4.2-17h1.5l-.7-2.9h2.8v-1.5l-7.9-4.4-.7 1.3h1.2l-2 3.6h1.1l-2.3 4.2h1l-2.8 5.2-2.8-5.2h1l-2.3-4.2h1.1l-2-3.6h1.2l-2.2-4.1h1.3l-1.8-3.3-7-3.9-1.6 2.9h1.3l-2.2 4h1.2l-2.5 4.7h1.1l-3.1 5.8-3.1-5.8h1.1l-2.5-4.7h1.2l-2.2-4h1.3l-.9-1.6-5.2 2.9v1.4l3.5-.8-.6.6 2.1-.3-5 3.1v.9l3.2-.7-.6.5 1.9-.3-4.6 2.7v1.1l2.9-.6-.5.5 1.7-.3-4.1 2.6v.6l2.4-.6-.4.4 1.4-.2-3.4 2.3v.8l1.9-.6-.3.4 1.1-.2-2.7 2.3v.7l1.3-.6-.2.4.8-.2-1.9 2.3v.7l.9-.5-.9 2-.9-2 .9.5v-.7l-1.9-2.3.8.2-.2-.4 1.3.6v-.7l-2.7-2.3 1.1.2-.3-.4 1.9.6v-.8l-3.4-2.3 1.4.2-.4-.4 2.4.6v-.6l-4.1-2.6 1.7.3-.5-.5 2.9.6v-1.1l-4.6-2.7 1.9.3-.6-.5 3.2.7v-.9l-5-3.1 2.1.3-.6-.6 3.5.8v-1.4l-5.9-3.3 2.5.3-.7-.6 4.1.8V243l-8.2 2.4-1.2 2.1h1.3l-2.2 4.1h1.2l-2 3.6h1.1l-2.3 4.2h1l-2.8 5.2-2.8-5.2h1l-2.3-4.2h1.1l-2-3.6h1.2l-2.2-4.1h1.3v-.1l-8.2-2.4-5.5 3v1.4l3.5-.8-.6.6 2.1-.3-5 3.1v.9l3.2-.7-.6.5 1.9-.3-4.6 2.7v1.1l2.9-.6-.5.5 1.7-.3-4.1 2.6v.6l2.4-.6-.4.4 1.4-.2-3.4 2.3v.8l1.9-.6-.3.4 1.1-.2-2.7 2.3v.7l1.3-.6-.2.4.8-.2-1.9 2.3v.7l.9-.5-.9 2-.9-2 .9.5v-.7l-1.9-2.3.8.2-.2-.4 1.3.6v-.7l-2.7-2.3 1.1.2-.3-.4 1.9.6v-.8l-3.4-2.3 1.4.2-.4-.4 2.4.6v-.6l-4.1-2.6 1.7.3-.5-.5 2.9.6v-1.1l-4.6-2.7 1.9.3-.6-.5 3.2.7v-.9l-5-3.1 2.1.3-.6-.6 3.5.8V248l-5.9-3.3 2.5.3-.7-.6 4.1.8v-2l-6.4-1.8-2.1 3.9h1.3l-2.2 4h1.2l-2.5 4.7h1.1l-3.2 5.8-3.1-5.8h1.1l-2.5-4.7h1.2l-2.2-4h1.3l-2.5-4.6h1.5l-1.7-3.1-3.9-1.1-.3 1.3h1.4l-4.2 17-4.2-17h1.5l-.7-2.9h1l-11-3.2-1.8 3.4h1.2l-2 3.6h1.1l-2.3 4.2h1l-2.8 5.2-2.8-5.2h.9l-2.3-4.2h1.1l-2-3.6h1.2l-2.3-4.1h1.3l-1.5-2.7-12-3.4-.6 2.5h1.5l-4.2 17-4.2-17h1.5l-.7-2.9h2.8v-.8l-9.2-2.6-1.1 2h1.2l-2 3.6h1.1l-2.3 4.2h1l-2.8 5.2-2.8-5.2h1l-2.3-4.2h1.1l-2-3.6h1.2l-2.2-4.1h1.3l-.4-.7-8.5-2.4-.1 4.4 4.1-.8-.7.6 2.5-.3-5.9 3.3v1.4l3.5-.8-.6.6 2.1-.3-5 3.1v.9l3.2-.7-.5.5 1.9-.3-4.6 2.7v1.1l2.9-.6-.5.5 1.7-.3-4.1 2.6v.6l2.4-.6-.4.4 1.4-.2-3.4 2.3v.8l1.9-.6-.3.4 1.1-.2-2.7 2.3v.7l1.3-.6-.2.4.8-.2-1.9 2.3v.7l.9-.4-.9 2-.9-2 .9.4v-.7l-1.9-2.3.8.2-.2-.4 1.3.6v-.7l-2.7-2.3 1.1.2-.3-.4 1.9.6v-.8l-3.4-2.3 1.4.2-.4-.4 2.4.6v-.6l-4.1-2.6 1.7.3-.5-.5 2.9.6v-1.1l-4.6-2.7 1.9.3-.6-.5 3.2.7v-.9l-5-3.1 2.1.3-.6-.6 3.5.8v-1.4l-5.9-3.3 2.5.3-.7-.6 4.1.8-.1-4.6-19.5-5.6-5.7 1.6-1.4 2.6h1.3l-2.3 4.1h1.2l-2 3.6h1.1l-2.3 4.2h.9l-2.8 5.2-2.8-5.2h.9l-2.3-4.2h1.1l-2-3.6h1.2l-1.8-3.3-7.4 2.2-.1 5.1 4.1-.8-.7.6 2.5-.3-5.9 3.3v1.4l3.5-.8-.6.6 2.1-.3-5 3.1v.9l3.2-.7-.5.5 1.9-.3-4.6 2.7v1.1l2.9-.6-.5.5 1.7-.3-4.1 2.6v.6l2.4-.6-.4.4 1.4-.2-3.4 2.3v.8l1.9-.6-.3.4 1.1-.2-2.7 2.3v.7l1.3-.6-.2.4.8-.2-1.9 2.3v.7l.9-.5-.9 2-.9-2 .9.5v-.7l-1.9-2.3.8.2-.2-.4 1.3.6v-.7l-2.7-2.3 1.1.2-.3-.4 1.9.6v-.8l-3.4-2.3 1.4.2-.4-.4 2.4.6v-.6l-4.1-2.6 1.7.3-.5-.5 2.9.6v-1.1l-4.6-2.7 1.9.3-.5-.5 3.2.7v-.9l-5-3.1 2.1.3-.6-.6 3.5.8v-1.4l-5.9-3.3 2.5.3-.7-.6 4.1.8-.1-4.9-12.6 3.7-2 3.8h1.3l-2.2 4.1h1.2l-2 3.6h1.1l-2.3 4.2h1l-2.8 5.2-2.8-5.2h1l-2.3-4.2h1.1l-2-3.6h1.2l-2.2-4.1h1.3l-.2-.3-6.8 2h.2l-.9 3.4h1.8l-5 20.4-2.8-11.4-2.1 3.8h1.3l-2.7 5h1.1l-3.4 6.2-3.4-6.2h1.2l-2.7-5h1.3l-2.4-4.3H96l-2.7-5h1.6l-.8-1.5-9.6 2.8-2.4 4.4h1.4l-2.3 4.2h1.2l-2 3.7h1.1l-2.3 4.3h1l-2.9 5.3-2.9-5.3h1l-2.3-4.3h1.1l-2-3.7h1.2l-2.3-4.2h1.4l-.4-.7-13.7 4v2.9l4.1-.8-.7.6 2.5-.3-5.9 3.3v1.4l3.5-.8-.6.6 2.1-.3-5 3.1v.9l3.2-.7-.6.5 1.9-.3-4.6 2.7v1.1l2.9-.6-.5.5 1.7-.3-4.1 2.6v.6l2.4-.6-.4.4 1.4-.2-3.4 2.3v.8l1.9-.6-.3.4 1.1-.2-2.7 2.3v.7l1.3-.6-.2.4.8-.2-1.9 2.3v.7l.9-.5-.9 2-.9-2 .9.5v-.7l-1.9-2.3.8.2-.2-.4 1.3.6v-.7l-2.7-2.3 1.1.2-.3-.4 1.9.6v-.8l-3.4-2.3 1.4.2-.4-.4 2.4.6v-.6l-4.1-2.6 1.7.3-.5-.5 2.9.6v-1.1l-4.6-2.7 1.9.3-.5-.5 3.2.7v-.9l-5-3.1 2.1.3-.6-.6 3.5.8v-1.4l-5.9-3.3 2.5.3-.7-.6 4.1.8v-2.7l-8.6 2.5-.6 2.6h1.4l-4.2 17-4.2-17h.9l-.2-.8-3.3 1-10.2-3-2.1 3.9h1.2l-2 3.7h1.1l-2.3 4.3h1l-2.9 5.3-2.9-5.3h1l-2.3-4.3h1.1l-2-3.7h1.2l-2.3-4.2h1.4l-1.9-3.4L0 236.6v-64.5h419v88.3l-5.8-3.2-1.1 1.9h1.2l-2 3.6h1.1l-2.3 4.2h1l-2.8 5.2-2.8-5.2h.9l-2.3-4.2h1.1l-1.5-2.8-5.7 3.1v1.4l3.5-.8-.6.6 2.1-.3-5 3.1v.9l3.2-.7-.6.5 1.9-.3-4.6 2.7v1.1l2.8-.6-.5.5 1.7-.3-4.1 2.6v.6l2.4-.6-.4.4 1.4-.2-3.4 2.3v.8l1.9-.6-.3.4 1.1-.2-2.7 2.3v.7l1.3-.6-.2.4.8-.2-1.9 2.3v.7l.9-.5-.9 2-1-1.7zm-15-16.1zm16.2-5.3l4.1-.8-.7.6 2.2-.3-.4-.7h1.2l-2.2-4.1h1.3l-.6-1.1-4.8 2.7-.1 3.7zm-.6 0V257l-5.2 2.9 1.9.2-.7-.6 4 .8zm-33.9-.4h1.4l-1.4-.8v.8zm-43.6-14.4l4.1-.8-.7.6 1.7-.2-1.5-2.8h1.5l-.4-.7-4.6 1.3-.1 2.6zm-33.2 0l3.8-.7-3.8-1.1v1.8zm3.4-.2l1.7-.2-1-.3-.7.5zm-262-.5zm77.1-6.2h1l-.3-1.3-.7 1.3zm114-13.9h1.6l-1.6-.4v.4z" opacity=".25" fill="#3c415c"/><path id="Unión_238_1_" class="st2" d="M402.7 250.3l1.3.7v-1.1l-2.6-3.3 1.1.3-.3-.6 1.8.8v-1l-3.8-3.3 1.6.3-.5-.6 2.6.8v-1.1l-4.8-3.3 2 .3-.6-.6 3.3.8v-.9l-5.8-3.7 2.4.4-.7-.7 4 .9v-1.6l-6.5-3.9 2.7.4-.8-.7 4.5.9v-1.3l-7.1-4.4 3 .4-.9-.8 4.9 1.1v-2l-8.3-4.6 3.5.5-1-.9 5.8 1.1v-2.5l-8.9-3.3-2.3 4.3h1.6l-2.6 4.9h1.4l-3.1 5.7h1.3l-3.8 7-3.8-7h1.3l-3.1-5.7h1.4l-2.6-4.9h1.6l-3-5.6h1.8l-2.6-4.8-12.8-4.7-2.9 5.4h1.6l-2.7 4.9h1.4l-3.1 5.7h1.3l-3.8 7-3.8-7h1.3l-3.1-5.7h1.4l-2.7-4.9h1.6l-3-5.6h1.8l-3.1-5.8h1.4l-14.2-5.2-.1 4.2 5.8-1.1-1 .9 3.5-.5-8.4 4.6v2l4.9-1.1-.9.8 3-.4-7.1 4.4v1.3l4.5-1-.8.7 2.7-.4-6.5 3.9v1.6l4-.9-.7.7 2.4-.4-5.8 3.7v.9l3.3-.8-.6.6 2-.3-4.8 3.3v1.1l2.6-.8-.5.6 1.6-.3-3.8 3.3v1l1.8-.8-.3.6 1.1-.3-2.6 3.3v1l1.3-.6-1.3 2.9-1.3-2.9 1.3.7v-1l-2.6-3.3 1.1.3-.3-.6 1.8.8v-1l-3.8-3.3 1.6.3-.5-.6 2.7.8v-1.1l-4.8-3.3 2 .3-.2-.6 3.3.8v-.9l-5.8-3.7 2.4.4-.7-.7 4 .9v-1.6l-6.5-3.9 2.7.4-.8-.7 4.5 1v-1.3l-7.1-4.4 3 .4-.9-.8 4.9 1.1v-2l-8.3-4.6 3.5.5-1-.9 5.8 1.1-.1-4.6-7.7-2.9-.8 1.5h2.4l-4.1 7.5h2.1l-3.6 6.6h1.9l-4.1 7.6h1.7l-5.1 9.4-5.1-9.4h1.7l-4.1-7.6h1.9l-3.6-6.6h2.1l-4.1-7.5h2.4l-4.2-7.7h5.4l-26.3-9.7L419 152.8V223l-8-3-6.6 3.7v2l4.9-1.1-.9.8 3-.4-7.1 4.4v1.3l4.5-.9-.8.7 2.7-.4-6.5 3.9v1.6l4-.9-.7.7 2.4-.4-5.8 3.7v.9l3.3-.8-.6.6 2-.3-4.8 3.3v1.1l2.6-.8-.5.6 1.6-.3-3.8 3.3v1l1.8-.8-.3.6 1.1-.3-2.6 3.3v1.1l1.3-.7-1.3 2.9-1.2-3.1zm1.8-30.6l3.8-.8-3.8-1.4v2.2zm4.8-.2h.3l-.2-.1-.1.1zm-45.6-16.7h.9l-.8-.3-.1.3z"/><path id="Unión_239_1_" class="st2" d="M14.4 244.1l1.3.7v-1.1l-2.7-3.3 1.1.3-.3-.6 1.9.8v-1l-3.9-3.3 1.6.3-.5-.6 2.7.8V236l-4.9-3.3 2 .3-.6-.6 3.4.8v-.9l-5.9-3.7 2.4.4-.7-.7 4.1.9v-1.6l-6.6-3.9 2.8.4-.8-.7 4.6.9V223l-7.2-4.4 3 .4-.9-.8 5 1.1v-2l-8.5-4.6 3.6.5-1-.9 5.9 1.1-.1-7.1L0 210.7v-57.9l137.8 19.9-22 6.1-2.9 5.2h2.5l-4.2 7.5h2.2l-3.6 6.6h2l-4.2 7.6h1.7l-5.2 9.5-5.2-9.5h1.8l-4.2-7.6h2l-3.6-6.6h2.2l-3.6-6.6-6.8 1.9v3.1l5.9-1.1-1 .9 3.6-.5-8.5 4.6v2l5-1.1-.9.8 3-.4-7.2 4.4v1.3l4.6-1-.8.7 2.8-.4-6.6 3.9v1.6l4.1-.9-.7.7 2.4-.4-5.9 3.7v.9l3.4-.8-.6.6 2-.3-4.9 3.3v1.1l2.7-.8-.5.6 1.6-.3-3.8 3.3v1l1.9-.8-.3.6 1.1-.3-2.7 3.3v1l1.3-.7-1.4 2.9-1.3-2.9 1.3.7v-1l-2.7-3.3 1.1.3-.3-.6 1.9.8v-1l-3.8-3.3 1.6.3-.5-.6 2.7.8v-1.1l-4.9-3.3 2 .3-.6-.6 3.4.8v-.9l-5.9-3.7 2.4.4-.7-.7 4.1.9V204l-6.6-3.9 2.8.4-.8-.7 4.6 1v-1.3l-7.2-4.4 3 .4-.9-.8 5 1.1v-2l-8.3-4.5-5.9 1.6h1.1l-3.2 5.8h1.8l-3.1 5.6H70l-2.7 4.9h1.5l-3.1 5.7H67l-3.9 7-3.9-7h1.3l-3.1-5.7h1.5l-2.7-4.9h1.6l-3.1-5.6h1.8l-.8-1.4-19.5 5.4h6.2l-3.2 5.8H41l-3.1 5.6h1.6l-2.7 4.9h1.5l-3.1 5.6h1.3l-3.8 7-3.9-7h1.3L27 217h1.5l-2.7-4.9h1.6l-3.1-5.6h1.8l-1.4-2.6-8.6 2.4-.1 7.4 5.9-1.1-1 .9 3.6-.5-8.5 4.6v2l5-1.1-.9.8 3-.4-7.2 4.4v1.3l4.6-.9-.8.7 2.8-.4-6.6 3.9v1.6l4.1-.9-.7.7 2.4-.4-5.9 3.7v.9l3.4-.8-.6.6 2-.3-4.9 3.3v1.1l2.7-.8-.5.6 1.6-.3-3.8 3.3v1l1.9-.8-.3.6 1.1-.3-2.7 3.3v1l1.3-.7-1.3 2.9-1.3-3.1zm71.4-54.2V187l-7.9 2.2 3.1.4-1-.9 5.8 1.2z"/><linearGradient id="Trazado_2261_2_" gradientUnits="userSpaceOnUse" x1="-788.17" y1="1139.193" x2="-787.897" y2="1138.706" gradientTransform="matrix(155.812 0 0 -51.1 122850.086 58258.473)"><stop offset="0" stop-color="#3c415c"/><stop offset="1" stop-color="#fff"/></linearGradient><path id="Trazado_2261_1_" d="M83.3 20.5L5.4 71.6h155.8L83.3 20.5z" fill="url(#Trazado_2261_2_)"/><linearGradient id="Trazado_2262_2_" gradientUnits="userSpaceOnUse" x1="-787.18" y1="1139.175" x2="-787.732" y2="1138.52" gradientTransform="matrix(96.344 0 0 -51.1 75931.68 58258.473)"><stop offset="0" stop-color="#301b3f"/><stop offset="1" stop-color="#596082"/></linearGradient><path id="Trazado_2262_1_" d="M83.3 20.5l3.9 7.5-9.1 7.3 18.8 3 2.7 14.8 2.1 18.5H5.4l77.9-51.1z" fill="url(#Trazado_2262_2_)"/><linearGradient id="Trazado_2343_2_" gradientUnits="userSpaceOnUse" x1="-788.235" y1="1139.318" x2="-787.899" y2="1138.674" gradientTransform="matrix(155.812 0 0 -51.1 123104.531 58258.473)"><stop offset="0" stop-color="#3c415c"/><stop offset="1" stop-color="#fff"/></linearGradient><path id="Trazado_2343_1_" d="M337.7 20.5l-77.9 51.1h155.8l-77.9-51.1z" fill="url(#Trazado_2343_2_)"/><linearGradient id="Trazado_2344_2_" gradientUnits="userSpaceOnUse" x1="-787.704" y1="1138.5" x2="-787.161" y2="1139.283" gradientTransform="matrix(96.3431 0 0 -51.1 76185.445 58258.473)"><stop offset="0" stop-color="#596082"/><stop offset="1" stop-color="#301b3f"/></linearGradient><path id="Trazado_2344_1_" d="M337.7 20.5l3.9 7.5-9.1 7.3 18.7 3 2.7 14.8 2.1 18.5h-96.3l78-51.1z" fill="url(#Trazado_2344_2_)"/><linearGradient id="Trazado_2329_2_" gradientUnits="userSpaceOnUse" x1="-788.084" y1="1141.312" x2="-787.697" y2="1140.802" gradientTransform="matrix(161.421 0 0 -82.948 127527.633 94738.453)"><stop offset="0" stop-color="#3c415c"/><stop offset="1" stop-color="#fff"/></linearGradient><path id="Trazado_2329_1_" d="M419 55.4l-35.7-23.6-125.7 82.9H419V55.4z" fill="url(#Trazado_2329_2_)"/><linearGradient id="Trazado_2330_2_" gradientUnits="userSpaceOnUse" x1="-787.387" y1="1141.416" x2="-787.966" y2="1140.7" gradientTransform="matrix(156.4041 0 0 -82.947 123569.398 94737.336)"><stop offset="0" stop-color="#301b3f"/><stop offset="1" stop-color="#596082"/></linearGradient><path id="Trazado_2330_1_" d="M384.1 31.8v15.8l8.3 1.9-11.8 20.6 30 14.5 3.4 30.1H257.6l126.5-82.9z" fill="url(#Trazado_2330_2_)"/><linearGradient id="Trazado_2263_2_" gradientUnits="userSpaceOnUse" x1="-788.354" y1="1141.289" x2="-788.147" y2="1141.047" gradientTransform="matrix(162.421 0 0 -82.948 128060.008 94738.453)"><stop offset="0" stop-color="#3c415c"/><stop offset="1" stop-color="#fff"/></linearGradient><path id="Trazado_2263_1_" d="M1 114.8h162.4l-126.5-83L1 55.4v59.4z" fill="url(#Trazado_2263_2_)"/><linearGradient id="Trazado_2264_2_" gradientUnits="userSpaceOnUse" x1="-787.012" y1="1141.208" x2="-788.011" y2="1140.724" gradientTransform="matrix(66.87 0 0 -82.947 52672.242 94737.336)"><stop offset="0" stop-color="#301b3f"/><stop offset="1" stop-color="#596082"/></linearGradient><path id="Trazado_2264_1_" d="M0 55.4v59.4h66.9l-3.5-30.1-30.5-14.5 12-20.6-8.4-1.9V31.8L0 55.4z" fill="url(#Trazado_2264_2_)"/><linearGradient id="Trazado_2265_2_" gradientUnits="userSpaceOnUse" x1="-788.462" y1="1141.436" x2="-788.308" y2="1140.954" gradientTransform="matrix(419 0 0 -84.1749 330492.844 96142.133)"><stop offset="0" stop-color="#3c415c"/><stop offset="1" stop-color="#fff"/></linearGradient><path id="Trazado_2265_1_" d="M289.1 30.6l-79.6 51.6-79.6-51.6L0 114.8h419L289.1 30.6z" fill="url(#Trazado_2265_2_)"/><linearGradient id="Trazado_2259_2_" gradientUnits="userSpaceOnUse" x1="-788.452" y1="1142.134" x2="-788.099" y2="1141.448" gradientTransform="matrix(354.918 0 0 -114.752 279966.156 131124.906)"><stop offset="0" stop-color="#3c415c"/><stop offset="1" stop-color="#fff"/></linearGradient><path id="Trazado_2259_1_" d="M210.5 0L33 114.8h355L210.5 0z" fill="url(#Trazado_2259_2_)"/><linearGradient id="Trazado_2345_2_" gradientUnits="userSpaceOnUse" x1="-785.634" y1="1135.584" x2="-787.233" y2="1134.372" gradientTransform="matrix(31.272 0 0 -31.021 24862.154 35276.383)"><stop offset="0" stop-color="#301b3f"/><stop offset="1" stop-color="#596082"/></linearGradient><path id="Trazado_2345_1_" d="M291.7 30.6l-16 10.5L307 61.6l-15.3-31z" fill="url(#Trazado_2345_2_)"/><linearGradient id="Trazado_2260_2_" gradientUnits="userSpaceOnUse" x1="-787.765" y1="1142.322" x2="-788.719" y2="1140.642" gradientTransform="matrix(253.4 0 0 -114.752 199839.594 131124.906)"><stop offset="0" stop-color="#301b3f"/><stop offset="1" stop-color="#596082"/></linearGradient><path id="Trazado_2260_1_" d="M245.3 42.8l-33.1-11.1 9.4-8.8-9.4-23-73.4 47.2-6.8-16.6L1 114.8h253.4l-17.2-28.3 8.1-43.7z" fill="url(#Trazado_2260_2_)"/><linearGradient id="Unión_234_2_" gradientUnits="userSpaceOnUse" x1="-788.263" y1="1142.25" x2="-788.263" y2="1141.367" gradientTransform="matrix(419 0 0 -95.234 330491.844 108823.46)"><stop offset="0" stop-color="#3c415c"/><stop offset="1" stop-color="#301b3f"/></linearGradient><path id="Unión_234_1_" d="M239.3 143.6H0V69l4.9 2.7.9-1.7h-1l1.7-3h-.9l1.9-3.5h-.8l2.4-4.4 2.4 4.4h-.8l1.9 3.5h-.9l1.3 2.4 4.8-2.6v-1.2l-2.9.6.5-.5-1.8.3 4.2-2.6v-.8l-2.7.6.5-.4-1.6.2 3.9-2.3v-.9l-2.4.5.4-.4-1.4.2 3.5-2.2v-.5l-2 .5.3-.4-1.3.2 2.9-1.9v-.7l-1.6.5.3-.4-.9.2 2.3-2v-.6l-1.1.5.1-.3-.6.2 1.6-2v-.6l-.8.4.8-1.7.8 1.7-.8-.4v.6l1.6 2-.7-.2.2.4-1.1-.6v.6l2.3 2-.9-.2.3.4-1.7-.5v.7l2.9 1.9-1.2-.2.3.4-2-.5v.5l3.4 2.2-1.4-.2.4.4-2.4-.5v.9l3.9 2.3-1.6-.2.5.4-2.7-.6v.8l4.2 2.6-1.8-.3.5.5-2.9-.6v1.2l4.7 2.6 3.7-2h-2.7l1.5-2.7h-.9l1.4-2.7H25l1.3-2.3h-.7l1.5-2.7h-.6l1.8-3.3 1.8 3.3h-.6l1.5 2.7h-.7l1.3 2.3h-.8l1.3 2.3 2.1-1.1L44.7 69l.5-1.9H44l3.5-14.4L51 67h-1.2l.6 2.4H48v1.3l6.7 3.7.6-1.1h-1l1.7-3h-1l1.9-3.5h-.8l2.4-4.4 2.4 4.4h-.8l1.9 3.5h-.9l1.7 3h-1l1.9 3.5h-1.1l1.5 2.8 5.2 2.9 1.2-2.1h-1.1l1.8-3.4h-1l2.1-3.9h-.9l2.7-4.9 2.7 4.9h-.9L78 77h-1l1.8 3.4h-1.1l2.1 3.9h-1.3l.4.8 4.6-1.3v-2.2l-3.5.7.6-.5-1.8.2 5-2.8V78l-2.9.6.5-.5-1.8.3 4.2-2.6V75l-2.7.6.5-.4-1.6.2 3.9-2.3v-.9l-2.4.5.4-.4-1.4.2 3.4-2.2v-.5l-2 .5.3-.4-1.2.3 2.9-1.9v-.7l-1.6.5.3-.4-.9.2 2.3-2v-.6l-1.1.5.2-.4-.6.2 1.6-2V63l-.8.4.8-1.7.8 1.7-.9-.3v.6l1.6 2-.7-.2.2.4-1.1-.5v.6l2.3 2-.9-.2.3.4-1.7-.6v.7l2.9 1.9-1.2-.2.3.4-2-.5v.5l3.5 2.2-1.4-.2.4.4-2.4-.5v.9l3.9 2.3-1.6-.2.5.4-2.7-.6v.8l4.2 2.6-1.8-.2.5.5-2.9-.6v1.2l5 2.8-2.1-.3.6.5-3.5-.7v2l6.9-2 1-1.9H91l1.9-3.5h-1l1.7-3.1h-.9l1.9-3.5h-.8l2.4-4.4 2.4 4.4h-.8l1.9 3.5h-.9l1.7 3.1h-1l1.9 3.5h-1.1l7 2 4.5-2.5v-1.2l-2.9.6.5-.5-1.8.3 4.2-2.6v-.8l-2.7.6.5-.4-1.6.2 3.9-2.3v-.9l-2.4.5.4-.4-1.4.2 3.4-2.2v-.5l-2 .5.3-.4-1.2.2 2.9-1.9v-.7l-1.6.5.3-.4-.9.2 2.3-2v-.6l-1.1.5.2-.4-.6.2 1.6-2V63l-.8.4.8-1.7.8 1.7-.8-.4v.6l1.6 2-.6-.2.2.4-1.1-.5v.6l2.3 2-.9-.2.3.4-1.6-.5v.7l2.9 1.9-1.2-.2.3.4-2-.5v.5l3.4 2.2-1.4-.2.4.4-2.4-.5v.9l3.9 2.3-1.6-.2.5.4-2.7-.6v.8l4.2 2.6-1.8-.3.5.5-2.9-.6v1.2l5 2.8-2.1-.3.6.5-3.5-.7v1.6l5.4 1.6 1.7-3.2h-1.1l1.9-3.4h-1l2.1-3.9h-.9l2.7-4.9 2.7 4.9h-.9l2.1 3.9h-1l1.8 3.4h-1.1l2.1 3.9h-1.3L129 88l3.4 1 .2-1h-1.2l3.5-14.4 3.5 14.4h-1.2l.6 2.4h-.5l9 2.6 1.5-2.8h-1l1.7-3.1h-.9l1.9-3.5h-.8l2.4-4.4 2.4 4.4h-.8l1.9 3.5h-.9l1.7 3.1h-1l1.9 3.5h-1.1l1.2 2.1 10.2 2.9.5-2h-1.2l3.5-14.4 3.5 14.4h-1.2l.6 2.4H170v.6l7.8 2.2.8-1.5h-1l1.7-3h-.9l1.9-3.5h-.8l2.4-4.4 2.4 4.4h-.8l1.9 3.5h-.9l1.7 3h-1l1.9 3.5H186l.2.4 7.2 2.1v-3.6l-3.4.7.6-.5-2.1.3 5-2.8v-1.2l-2.9.6.5-.5-1.8.3 4.2-2.6v-.8l-2.7.6.5-.4-1.6.2 3.9-2.3v-.9l-2.4.5.4-.4-1.4.2 3.4-2.2v-.5l-2 .5.4-.4-1.2.2 2.9-1.9v-.7l-1.6.5.3-.4-.9.2 2.3-2v-.6l-1.1.5.2-.4-.7.2 1.6-2v-.6l-.8.4.8-1.7.8 1.7-.8-.4v.8l1.6 2-.7-.2.2.4-1.1-.5v.6l2.3 2-.9-.2.3.4-1.6-.5v.7l2.9 1.9-1.2-.2.3.4-2-.5v.5l3.4 2.2-1.4-.2.4.4-2.4-.5v.9l3.9 2.3-1.6-.2.5.4-2.7-.6v.8l4.2 2.6-1.8-.3.5.5-2.9-.6v1.2l5 2.8-2.1-.3.6.5-3.5-.7.1 3.8 15.5 4.4 6.2-1.8.7-1.4h-1.1l1.9-3.5h-1l1.7-3h-1l1.9-3.5h-.8l2.4-4.4 2.4 4.4h-.8l1.9 3.5h-.9l1.7 3h-1l1.2 2.2 6.6-1.9.1-3.7-3.5.7.6-.5-2.1.3 5-2.8v-1.2l-2.9.6.5-.5-1.8.3 4.2-2.6v-.8l-2.7.6.5-.4-1.6.2 3.9-2.3v-.9l-2.4.5.4-.4-1.4.2 3.4-2.2v-.5l-2 .5.3-.4-1.2.2 2.9-1.9V87l-1.6.5.3-.4-.9.2 2.3-2v-.6l-1.1.5.2-.4-.6.2 1.6-2v-.6l-.8.4.8-1.7.8 1.7-.8-.4v.6l1.6 2-.6-.2.2.4-1.1-.5v.6l2.3 1.9-.9-.2.3.4-1.6-.5v.7l2.9 1.9-1.2-.2.4.4-2-.5v.5l3.4 2.2-1.4-.2.4.4-2.4-.5v.9l3.9 2.3-1.6-.2.5.4-2.7-.6v.8l4.2 2.6-1.8-.3.5.5-2.9-.6v1.2l5 2.8-2.1-.3.6.5-3.4-.7v3.5l11-3.2 1.4-2.5h-1.1l1.9-3.5h-1l1.7-3h-.9l1.9-3.5h-.8l2.4-4.4 2.4 4.4h-.8l1.9 3.5h-.9l1.7 3h-1l1.7 3.1 4.9-1.4.6-2.4H258l4.3-17.3 2.4 9.7 1.8-3.2h-1.1l2.3-4.2h-1l2.9-5.2 2.8 5.2h-1l2.3 4.2h-1.1l2 3.7H273l2.3 4.2H274l.5.9 8.5-2.4 1.8-3.2h-1.2l2-3.6h-1l1.7-3.1h-.9l2-3.6h-.8l2.4-4.5 2.5 4.5h-.8l2 3.6h-.9l1.7 3.1h-1l2 3.6h-1.2l.2.3 11.2-3.2v-2.3l-3.4.7.6-.5-2.1.3 5-2.8v-1.2l-2.9.6.5-.5-1.8.3 4.2-2.6v-.8l-2.7.6.5-.4-1.6.2 3.9-2.3v-.9l-2.4.5.4-.4-1.4.2 3.4-2.2V70l-2 .5.4-.4-1.2.2 2.9-1.9v-.7l-1.6.5.3-.4-.9.2 2.3-2v-.6l-1.1.5.2-.4-.6.2 1.6-2v-.6l-.8.4.8-1.7.8 1.7-.8-.4v.6l1.6 2-.7-.2.2.4-1.1-.5v.6l2.3 2-.9-.2.3.4-1.6-.5v.7l2.9 1.9-1.2-.2.3.4-2-.5v.5l3.4 2.2-1.4-.2.4.4-2.4-.5v.9l3.9 2.3-1.6-.2.5.4-2.7-.6v.8l4.2 2.6-1.8-.2.5.5-2.9-.6v1.2l5 2.8-2.1-.3.6.5-3.5-.7v2.1l7.4-2.1.5-2.1h-1.2l3.5-14.4 3.5 14.4h-1.2l.1.6 2.5-.7 9.1 2.6 1.9-3.4h-1l1.7-3.1h-.9l2-3.6h-.8l2.4-4.5 2.4 4.5h-.8l2 3.6H337l1.7 3.1h-1l2 3.6h-1.2l1.6 3 3.2.9 3.3-1.8 1.8-3.4h-1.2l2-3.6h-1l1.7-3.1h-.9l2-3.6h-.8l2.5-4.5 2.4 4.5h-.8l2 3.6h-.9l1.7 3.1h-1l.8 1.4 5.7-3.2v-.9h-.6l.3-.6-3.2.6.6-.5-2.1.3 5-2.8v-1.2l-2.9.6.5-.5-1.8.3 4.2-2.6v-.8l-2.7.6.5-.4-1.6.2 3.9-2.3v-.9l-2.4.5.4-.4-1.4.2 3.5-2.2v-.5l-2 .5.3-.4-1.2.2 2.9-1.9v-.7l-1.6.5.3-.4-.9.2 2.3-2v-.6l-1.1.5.2-.4-1 .1 1.6-2v-.6l-.8.4.8-1.7.8 1.7-.8-.4v.6l1.6 2-.6-.2.2.4-1.1-.5v.6l2.3 2-1-.3.3.4-1.6-.5v.7l2.6 1.8 1-1.8h-.8l2.5-4.5 2.4 4.5h-.8l2 3.6h-.9l1.7 3.1h-1l1.4 2.5L385 63l15.1 8.3v-3.2l-3.5.7.6-.5-2.1.3 5-2.8v-1.2l-2.9.6.5-.5-1.8.3 4.2-2.6v-.8l-2.7.6.5-.4-1.6.2 3.9-2.3v-.9l-2.4.5.4-.4-1.4.2 3.4-2.2v-.5l-2 .5.3-.4-1.2.2 2.9-1.9v-.7l-1.6.5.3-.4-.9.2 2.3-2v-.6l-1.1.5.2-.4-.6.2 1.6-2v-.6l-.8.4.8-1.7.6 1.8-.8-.4v.6l1.6 2-.7-.2.2.4-1.1-.5v.6l2.3 2-.9-.2.3.4-1.6-.5v.7l2.9 1.9-1.2-.2.4.4-2-.5v.5l3.4 2.2-1.4-.2.4.4-2.4-.5v.9l3.9 2.3-1.6-.2.5.4-2.7-.6v.8l4.2 2.6-1.8-.3.5.5-2.9-.6v1.2l5 2.8-2.1-.3.6.5-3.4-.7v3.6l5.5 3.1 1.4-2.6h-1.2l2-3.6h-1l1.7-3.1h-.9l2-3.6h-.8l2.5-4.5 2.4 4.5h-.8l2 3.6h-.9l1.7 3.1h-1l1.1 2 3-1.7v74.6h-180zm-70.4-44.2v-.3h-.9l.9.3zm95.7-10.9l.6-1.1h-.9l.3 1.1zM111.8 83v-1.5l-3.1.6 3.1.9zm218.3-.7l.1-.1h-.5l.4.1zm-221.6-.2l.4-.4-1.2.2.8.2zm254.4-6.9l1.1-.6h-1.2l.1.6zm-349.3-.8l4.1-2.3V69l-3.5.7.6-.5-1.8.2.3.6h-1l1.9 3.5h-1.1l.5.9zm4.7-2.6l4.4-2.4-1.6-.2.6.5-3.5-.7.1 2.8zm344.5-.2l.4.2.5-1h-1l.1.8zm0-1.1zm-315.9-.4v-.7h-1.2l1.2.7zm315.9-1.9l1 .6.6-1.1-1.5-.3-.1.8zm0-2.7l1.3.8.7-1.3-2-.4v.9zm2.1-.7l-.1-.1.1.1zm-333.5-.3zm333.8-.2l.1-.1h-.3l.2.1zm-2.5-1.6l1.8 1.1.7-1.4-.9-.1.3.4-2-.5.1.5z" fill="url(#Unión_234_2_)"/><linearGradient id="Unión_236_2_" gradientUnits="userSpaceOnUse" x1="-788.263" y1="1142.613" x2="-788.263" y2="1141.613" gradientTransform="matrix(419 0 0 -111.6 330491.844 127576.766)"><stop offset="0" stop-color="#3c415c"/><stop offset="1" stop-color="#301b3f"/></linearGradient><path id="Unión_236_1_" d="M118.5 172.8H0V84.5l5.8 3.2 1.1-1.9H5.7l2-3.6H6.6L8.9 78h-1l2.8-5.2 2.8 5.2h-.9l2.3 4.2h-1.1l1.5 2.8 5.7-3.1v-1.4l-3.5.8.6-.6-2 .3 5-3.1V77l-3.2.7.6-.5-1.9.3 4.6-2.7v-1.1l-2.8.6.5-.5-1.9.2 4.1-2.6v-.6l-2.4.6.4-.4-1.4.2 3.4-2.3v-.8l-1.9.6.3-.4-1.1.2 2.7-2.3v-.7l-1.2.5.2-.4-.8.2 1.9-2.3v-.7l-.9.5.9-2 .9 2-.9-.5v.7l1.9 2.3-.8-.2.2.4-1.3-.6v.7l2.7 2.3-1.1-.2.3.4-1.9-.6v.8l3.4 2.3-1.4-.2.4.4-2.4-.6v.6l4.1 2.6-1.7-.3.5.5-2.8-.6v1.1l4.6 2.7L24 77l.6.5-3.2-.7v.9l5 3.1-2.1-.3.6.6-3.5-.8v1.4l5.5 3.1 4.4-2.4H28l1.8-3.2h-1l1.7-3.1h-.9l1.5-2.8h-.8l1.7-3.2h-.7l2.2-3.9 2.1 3.9H35l1.7 3.2h-.8l1.5 2.8h-.9l1.5 2.8 2.5-1.4 12.4 6.9.5-2.2H52l4.2-17 4.2 17h-1.5l.7 2.9h-2.8v1.5l7.9 4.4.7-1.3h-1.2l2-3.6h-1.1l2.3-4.2h-1l2.8-5.2 2.8 5.2h-1l2.3 4.2h-1.1l2 3.6H73l2.2 4.1H74l1.8 3.3 7 3.9 1.6-2.9h-1.3l2.2-4h-1.2l2.5-4.7h-1.1l3.2-5.8 3.2 5.8h-1.1l2.5 4.7h-1.2l2.2 4H93l.9 1.6 5.2-2.9v-1.4l-3.5.6.6-.6-2.1.3 5-3.1v-.9l-3.2.7.6-.5-1.9.3 4.6-2.7v-1.1l-2.8.6.5-.5-1.7.3 4.1-2.6v-.6l-2.4.6.4-.4-1.4.2 3.4-2.3v-.8l-1.9.6.3-.4-1.1.2 2.7-2.3v-.7l-1.3.5.2-.4-.8.2 1.9-2.3v-.7l-.9.4.9-2 .9 2-.9-.5v.7l1.9 2.3-.8-.2.2.4-1.3-.6v.7l2.7 2.3-1-.1.3.4-1.9-.6v.8l3.4 2.3-1.4-.2.4.4-2.4-.6v.6l4.1 2.6-1.7-.3.5.5-2.9-.6v1.1l4.6 2.7-1.9-.3.6.5-3.2-.7v.9l5 3.1-2.1-.3.6.6-3.5-.7v1.4l5.9 3.3-2.5-.3.7.6-4.1-.8v2.3l8.2-2.4 1.2-2.1h-1.3l2.2-4.1h-1.2l2-3.6h-1.1l2.3-4.2h-1l2.8-5.2 2.8 5.2h-1l2.3 4.2h-1.1l2 3.6h-1.2l2.2 4.1h-1.3l.1.1 8.2 2.4 5.5-3v-1.4l-3.5.7.6-.6-2.1.3 5-3.1v-.9l-3.2.7.6-.5-1.9.3 4.6-2.7v-1.1l-2.9.6.5-.5-1.7.3 4.1-2.6v-.6l-2.4.6.4-.4-1.4.2 3.4-2.3v-.8l-1.9.6.7-.5-1.1.2 2.7-2.3v-.7l-1.3.6.2-.4-.8.2 1.9-2.3v-.7l-.9.5.9-2 .9 2-.9-.5v.7l1.9 2.3-.8-.2.2.4-1.3-.6v.7l2.7 2.3-1.1-.2.3.4-1.9-.6v.8l3.4 2.3-1.4-.2.4.4-2.4-.6v.6l4.1 2.6-1.7-.3.5.5-2.9-.6v1.1l4.6 2.7-1.9-.3.6.5-3.2-.7v.9l5 3.1-2.1-.3.6.6-3.5-.7v1.4l5.9 3.3-2.5-.3.7.6-4.1-.8v2l6.4 1.8 2.1-3.9h-1.3l2.2-4h-1.2l2.5-4.7h-1.1l3.2-5.8 3.1 5.8h-1.1l2.5 4.7h-1.2l2.2 4h-1l2.5 4.6H151l1.7 3.1 3.9 1.1.3-1.3h-1.4l4.2-17 4.2 17h-1.5l.7 2.9h-1l11 3.2 1.8-3.4h-1.2l2-3.6h-1.1l2.3-4.2h-1l2.8-5.2 2.8 5.2h-.9l2.3 4.2h-.9l2 3.6h-1.2l2.3 4.1h-1.3l1.5 2.7 12 3.4.6-2.5h-1.5l4.2-17 4.2 17h-1.5l.7 2.9h-2.8v.8l9.2 2.6 1.1-2h-1.2l2-3.6h-1.1l2.3-4.2h-1l2.8-5.2 2.8 5.2h-1l2.3 4.2h-1.1l2 3.6h-1.2l2.2 4.1H220l.4.7 8.5 2.4.1-4.4-4.1.8.7-.6-2.5.3 5.9-3.2v-1.4l-3.5.8.6-.6-2.1.3 5-3.1v-.9l-3.2.7.5-.5-1.9.3 4.6-2.7v-1.1l-2.9.6.5-.5-1.7.2 4.1-2.6v-.6l-2.4.6.4-.4-1.4.2 3.4-2.3v-.8l-1.9.6.3-.4-1.1.2 2.7-2.3v-.7l-1.3.6.2-.4-.8.2 1.9-2.3v-.7l-.9.5.9-2 .9 2-.9-.5v.7l1.9 2.3-.8-.2.2.4-1.3-.6v.7l2.7 2.3-1.1-.2.3.4-1.9-.6v.8l3.4 2.3-1.4-.2.4.4-2.4-.6v.6l4.1 2.6-1.7-.2.5.5-2.9-.6v1.1l4.6 2.7-1.9-.3.6.5-3.2-.7v.9l5 3.1-2.1-.3.6.6-3.5-.8v1.4l5.9 3.2-2.5-.3.7.6-4.1-.8.1 4.6 19.5 5.6 5.7-1.6 1.4-2.6h-1.3l2.3-4.1h-1.2l2-3.6h-1.1l2.3-4.2h-.9l2.8-5.2 2.8 5.2h-.9l2.3 4.2h-.9l2 3.6h-1.2l1.8 3.3 7.4-2.2.1-5.1-4.1.8.7-.6-2.5.3 5.9-3.3V118l-3.5.7.6-.6-2.1.3 5-3.1v-.9l-3.2.7.5-.5-1.9.3 4.6-2.7v-1.1l-2.9.6.5-.5-1.7.3 4.1-2.6v-.6l-2.4.6.4-.4-1.4.2 3.4-2.3v-.8l-1.9.6.3-.4-1.1.2 2.7-2.3v-.7l-1.3.6.2-.4-.8.2 1.9-2.3v-.7l-.9.5.9-2 .9 2-.9-.5v.7l1.9 2.3-.8-.2.2.4-1.3-.6v.7l2.7 2.3-1.1-.2.3.4-1.9-.6v.8l3.4 2.3-1.4-.2.4.4-2.4-.6v.6l4.1 2.6-1.7-.3.5.5-2.9-.6v1.1l4.6 2.7-1.9-.3.5.5-3.2-.7v.9l5 3.1-2.1-.3.6.6-3.5-.7v1.4l5.9 3.3-2.5-.3.7.6-4.1-.8.1 4.9 12.6-3.7 2.1-3.8h-.9l2.2-4.1H289l2-3.6h-1l2.3-4.2h-1l2.8-5.2 2.8 5.2h-1l2.3 4.2h-1.1l2 3.6H298l2.2 4.1h-1.3l.2.3 6.8-2h-.2l.9-3.5h-1.8l5-20.4 2.8 11.4 2.1-3.8h-1.3l2.7-5H315l3.4-6.2 3.4 6.2h-1.2l2.7 5H322l2.4 4.3H323l2.7 4.9h-1.6l.8 1.5 9.6-2.8 2.4-4.3h-1.4l2.3-4.2h-1.2l2-3.7h-1.1l2.3-4.3h-1l2.9-5.3 2.9 5.3h-1l2.3 4.3h-1.1l2 3.7h-1.2l2.3 4.2h-1.4l.4.7 13.8-4V99l-4.1.8.7-.6-2.5.3 5.9-3.3v-1.4l-3.5.7.6-.6-2.1.3 5-3.1v-.9l-3.2.7.6-.5-1.9.3 4.6-2.7v-1.1L358 89l.5-.5-1.7.3 4.1-2.6v-.6l-2.4.6.4-.4-1.4.2 3.4-2.3v-.8l-1.9.6.3-.4-1.1.2 2.7-2.3v-.7l-1.3.6.2-.4-.8.2 1.9-2.3v-.7l-.9.5.9-2 .9 2-.9-.5v.7l1.9 2.3-.8-.2.2.4-1.3-.6v.7l2.7 2.3-1.1-.2.3.4-1.9-.6v.8l3.4 2.3-1.4-.2.4.4-2.4-.6v.6l4.1 2.6-1.7-.3.5.5-2.9-.6v1.1l4.6 2.7-1.9-.3.5.5-3.2-.7v.9l5 3.1-2.1-.3.6.6-3.5-.7v1.4l5.9 3.3-2.5-.3.7.6-4.1-.8v2.7l8.6-2.5.6-2.6h-1.4l4.2-17 4.2 17H376l.2.8 3.3-1 10.2 3 2.1-3.9h-1.2l2-3.7h-1.1l2.3-4.3h-1l2.9-5.3 2.9 5.3h-1l2.3 4.3h-1.1l2 3.7h-1.2l2.3 4.2h-1.4l1.9 3.4 16.5 4.8v64.5H118.5zm81.3-52.2v-.4h-1.5l1.5.4zm113.3-13l.7-1.3h-1l.3 1.3zm-218.7-4.3L99 102v-2.5l-4.1.8.7-.6-1.6.1 1.5 2.8H94l.4.7zm37.9-2v-1.8l-3.8.7 3.8 1.1zm258.6-1.2zm-262.6 0l.6-.5-1.7.2 1.1.3zM16.1 91l4.8-2.7v-3.7l-4.1.8.7-.6-2.2.3.4.7h-1.2l2.2 4.1h-1.3l.7 1.1zm5.5-3.1l5.2-2.9-1.9-.2.7.6-4.1-.8.1 3.3zm33.9-2.1V85h-1.4l1.4.8zm-18.3-6.5z" fill="url(#Unión_236_2_)"/><linearGradient id="Unión_237_2_" gradientUnits="userSpaceOnUse" x1="-788.263" y1="1142.336" x2="-788.263" y2="1141.336" gradientTransform="matrix(419 0 0 -100.381 330491.844 114761.18)"><stop offset="0" stop-color="#3c415c"/><stop offset="1" stop-color="#301b3f"/></linearGradient><path id="Unión_237_1_" d="M282.2 172.8l21.8-6.1 2.8-5.2h-2.4l4.1-7.5h-2.2l3.6-6.6h-2l4.1-7.6h-1.7l5.1-9.4 5.1 9.4H319l4.2 7.6h-2l3.6 6.6h-2.2l3.6 6.6 6.7-1.9v-3.1l-5.8 1.1 1-.9-3.5.4 8.4-4.6v-2l-4.9 1.1.9-.8-3 .4 7.1-4.4v-1.3l-4.6 1 .8-.7-2.8.4 6.6-3.9v-1.6l-4.1.9.7-.7-2.4.4 5.8-3.7v-.9l-3.4.8.6-.6-2 .3 4.8-3.3v-1.1l-2.7.8.5-.6-1.6.3 3.8-3.3v-1l-1.8.8.3-.6-1.1.3 2.7-3.3v-1l-1.2.7 1.3-2.9 1.3 2.9-1.3-.7v1l2.7 3.3-1.1-.3.3.6-1.8-.8v1l3.8 3.3-1.6-.3.5.6-2.7-.8v1.1l4.8 3.3-2-.3.6.6-3.4-.8v.9l5.8 3.7-2.4-.4.7.7-4.1-.9v1.6l6.6 3.9-2.8-.4.8.7-4.6-1v1.3l7.1 4.4-3-.4.9.8-4.9-1.1v2l8.2 4.5 5.8-1.6h-1.1l3.1-5.8H348l3.1-5.6h-1.6l2.7-4.9h-1.5l3.1-5.6h-1.3l3.8-7 3.8 7h-1.3l3.1 5.6h-1.4l2.7 4.9h-1.6l3.1 5.6h-1.8l.8 1.4 19.4-5.4H377l3.1-5.8h-1.8l3.1-5.6h-1.6l2.7-4.9h-1.4l3.1-5.7h-1.3l3.8-7 3.8 7H389l3.1 5.7h-1.4l2.7 4.9h-1.6l3.1 5.6h-1.8l1.4 2.6 8.5-2.4.1-7.4-5.8 1.1 1-.9-3.5.5 8.4-4.6v-2l-4.9 1.1.9-.8-3 .4 7.1-4.4v-1.3l-4.6.9.8-.7-2.8.4 6.6-3.9v-1.6l-4.1.9.7-.7-2.4.4 5.8-3.7v-.9l-3.4.8.6-.6-2 .3 4.8-3.3V108l-2.7.8.5-.6-1.6.3 3.8-3.3v-1l-1.8.8.3-.6-1.1.3 2.6-3.3v-1l-1.3.7 1.3-2.9 1.3 2.9-1.3-.7v1l2.7 3.3-1.1-.3.3.6-1.8-.8v1l3.8 3.3-1.6-.3.5.6-2.7-.8v1.1l4.8 3.3-2-.3.6.6-3.4-.8v.9l5.8 3.7-2.4-.4.7.7-4.1-.9v1.6l6.6 3.9-2.8-.4.8.7-4.6-.9v1.3l7.1 4.4-3-.4.9.8-4.9-1.1v2l8.4 4.6-3.5-.5 1 .9-5.8-1.1.1 7.1 15.1-4.2v57.9l-136.6-19.7zm51.6-14.4l7.9-2.2-3.1-.4 1 .9-5.8-1.1v2.8zM0 122.5l8.1 3 6.6-3.7v-2l-4.9 1.1.9-.8-3 .4 7.1-4.4v-1.3l-4.6.9.8-.7-2.8.4 6.6-3.9v-1.6l-4.1.9.7-.7-2.4.4 5.8-3.7v-.9l-3.4.8.6-.6-2 .3 4.8-3.3V102l-2.7.8.5-.6-1.6.3 3.8-3.3v-1L13 99l.3-.6-1.1.3 2.7-3.3v-1l-1.3.7 1.3-2.9 1.3 2.9-1.3-.7v1l2.7 3.3-1.1-.3.3.6-1.8-.8v1l3.8 3.3-1.6-.3.5.6-2.7-.8v1.1l4.8 3.3-2-.3.6.6-3.4-.8v.9l5.8 3.7-2.4-.4.7.7-4.1-.9v1.6l6.6 3.9-2.8-.4.8.7-4.6-.9v1.3l7.1 4.4-3-.4.9.8-4.9-1.1v2l8.4 4.6-3.6-.5 1 .9-5.8-1.1v2.5l9 3.3 2.3-4.3h-1.6l2.7-4.9h-1.4l3.1-5.7h-1.3l3.8-7 3.8 7h-1.3l3.1 5.7h-1.4l2.7 4.9H37l3.1 5.6h-1.8l2.6 4.8 12.9 4.7 2.9-5.3h-1.6l2.7-4.9h-1.5l3.1-5.6h-1.3l3.8-7 3.8 7h-1.3l3.1 5.6h-1.4L69 137h-1.6l3.1 5.6h-1.8l3.2 5.8h-1.4l14.2 5.2.1-4.2-5.8 1.1 1-.9-3.5.4 8.4-4.6v-2l-4.9 1.1.9-.8-3 .4 7.1-4.4v-1.3l-4.6 1 .8-.7-2.8.4 6.6-3.9v-1.6l-4.1.9.7-.7-2.4.4 5.8-3.7v-.9l-3.4.8.6-.6-2 .3 4.8-3.3v-1.1l-2.7.8.5-.6-1.6.3L85 123v-1l-1.8.8.3-.6-1.1.3 2.7-3.3v-1l-1.3.7 1.3-2.9 1.3 2.9-1.3-.7v1l2.6 3.3-1.1-.3.3.6-1.8-.8v1l3.8 3.3-1.6-.3.5.6-2.7-.8v1.1l4.8 3.3-2-.3.6.6-3.4-.8v.9l5.8 3.7-2.4-.4.7.7-4.1-.9v1.6l6.6 3.9-2.8-.4.8.7-4.6-1v1.3l7.1 4.4-3-.4.9.8-4.9-1.1v2l8.4 4.6-3.5-.4 1 .9-5.8-1.1.1 4.6 7.8 2.9.8-1.5h-2.4l4.1-7.5h-2.2l3.6-6.6h-2l4.2-7.6h-1.7l5.1-9.4 5.2 9.4h-1.7l4.1 7.6h-1.9l3.6 6.6h-2.2l4.1 7.5h-2.4l4.2 7.7h-5.5l26.5 9.7L0 192.7v-70.2zm55.5 20.4l.2-.3h-.9l.7.3zm-40.9-15v-2.2l-3.9.8 3.9 1.4zm-4.9-1.8l.1-.1h-.2l.1.1z" fill="url(#Unión_237_2_)"/></svg>