<?xml version="1.0" encoding="utf-8"?>
<!-- Generator: Adobe Illustrator 24.2.0, SVG Export Plug-In . SVG Version: 6.00 Build 0)  -->
<svg version="1.1" id="Capa_1" xmlns="http://www.w3.org/2000/svg" xmlns:xlink="http://www.w3.org/1999/xlink" x="0px" y="0px"
	 viewBox="0 0 419 288.7" style="enable-background:new 0 0 419 288.7;" xml:space="preserve">
<style type="text/css">
	.st0{opacity:0.3;fill:#FFFFFF;enable-background:new    ;}
	.st1{opacity:0.25;fill:#D03333;enable-background:new    ;}
	.st2{opacity:0.3;fill:#D03333;enable-background:new    ;}
	.st3{fill:url(#Trazado_2262_1_);}
	.st4{fill:url(#Trazado_2263_1_);}
	.st5{fill:url(#Trazado_2264_1_);}
	.st6{fill:url(#Trazado_2265_1_);}
	.st7{fill:url(#Trazado_2266_1_);}
	.st8{fill:url(#Trazado_2267_1_);}
	.st9{fill:url(#Trazado_2268_1_);}
	.st10{fill:url(#Trazado_2269_1_);}
	.st11{fill:url(#Trazado_2270_1_);}
	.st12{fill:url(#Trazado_2260_1_);}
	.st13{fill:url(#Trazado_2271_1_);}
	.st14{fill:url(#Trazado_2261_1_);}
	.st15{fill:url(#Unión_234_1_);}
	.st16{fill:url(#Unión_236_1_);}
	.st17{fill:url(#Unión_237_1_);}
</style>
<rect id="Rectángulo_106" x="0" y="156.1" class="st0" width="419" height="132.6"/>
<path id="Unión_244" class="st1" d="M396.8,281.7l0.9,0.5l0-0.7l-1.9-2.3l0.8,0.2l-0.2-0.4l1.3,0.6l0-0.7l-2.7-2.3l1.1,0.2
	l-0.3-0.4l1.9,0.6V276l-3.4-2.3l1.4,0.2l-0.4-0.4l2.4,0.6l0-0.6l-4.1-2.6l1.7,0.3l-0.5-0.5l2.8,0.6l0-1.1l-4.6-2.7l1.9,0.3l-0.6-0.5
	l3.2,0.7V267l-5-3.1l2.1,0.3l-0.6-0.6l3.5,0.8l0-1.4l-5.5-3.1l-4.4,2.4h3.3l-1.8,3.2h1l-1.7,3.2h0.9l-1.5,2.8h0.8l-1.7,3.2h0.7
	l-2.2,4l-2.1-4h0.7l-1.7-3.2h0.8l-1.5-2.8h0.9L381,266l-2.5,1.4l-12.4-6.9l-0.5,2.2h1.5l-4.2,17l-4.2-17h1.5l-0.7-2.9h2.8v-1.5
	l-7.9-4.4l-0.7,1.3h1.2l-2,3.6h1.1l-2.3,4.2h1l-2.8,5.2l-2.8-5.2h1l-2.3-4.2h1.1l-2-3.6h1.2l-2.2-4.1h1.3l-1.8-3.3l-7-3.9l-1.6,2.9
	h1.3l-2.2,4h1.2l-2.5,4.7h1.1l-3.1,5.8l-3.1-5.8h1.1l-2.5-4.7h1.2l-2.2-4h1.3l-0.9-1.6l-5.2,2.9l0,1.4l3.5-0.8l-0.6,0.6l2.1-0.3
	l-5,3.1l0,0.9l3.2-0.7l-0.6,0.5l1.9-0.3l-4.6,2.7l0,1.1l2.9-0.6l-0.5,0.5l1.7-0.3l-4.1,2.6l0,0.6l2.4-0.6l-0.4,0.4l1.4-0.2l-3.4,2.3
	v0.8l1.9-0.6l-0.3,0.4l1.1-0.2l-2.7,2.3l0,0.7l1.3-0.6l-0.2,0.4l0.8-0.2l-1.9,2.3l0,0.7l0.9-0.5l-0.9,2l-0.9-2l0.9,0.5v-0.7
	l-1.9-2.3l0.8,0.2l-0.2-0.4l1.3,0.6l0-0.7l-2.7-2.3l1.1,0.2l-0.3-0.4l1.9,0.6l0-0.8l-3.4-2.3l1.4,0.2l-0.4-0.4l2.4,0.6v-0.6
	l-4.1-2.6l1.7,0.3l-0.5-0.5l2.9,0.6l0-1.1l-4.6-2.7l1.9,0.3l-0.6-0.5l3.2,0.7l0-0.9l-5-3.1l2.1,0.3l-0.6-0.6l3.5,0.8l0-1.4l-5.9-3.3
	l2.5,0.3l-0.7-0.6l4.1,0.8l0-2.3l-8.2,2.4l-1.2,2.1h1.3l-2.2,4.1h1.2l-2,3.6h1.1l-2.3,4.2h1l-2.8,5.2l-2.8-5.2h1l-2.3-4.2h1.1
	l-2-3.6h1.2l-2.2-4.1h1.3l0-0.1l-8.2-2.4l-5.5,3l0,1.4l3.5-0.8l-0.6,0.6l2.1-0.3l-5,3.1l0,0.9l3.2-0.7l-0.6,0.5l1.9-0.3l-4.6,2.7
	l0,1.1l2.9-0.6l-0.5,0.5l1.7-0.3l-4.1,2.6v0.6l2.4-0.6l-0.4,0.4l1.4-0.2l-3.4,2.3l0,0.8l1.9-0.6l-0.3,0.4l1.1-0.2l-2.7,2.3l0,0.7
	l1.3-0.6l-0.2,0.4l0.8-0.2l-1.9,2.3v0.7l0.9-0.5l-0.9,2l-0.9-2l0.9,0.5l0-0.7l-1.9-2.3l0.8,0.2l-0.2-0.4l1.3,0.6l0-0.7l-2.7-2.3
	l1.1,0.2l-0.3-0.4l1.9,0.6v-0.8l-3.4-2.3l1.4,0.2l-0.4-0.4l2.4,0.6l0-0.6l-4.1-2.6l1.7,0.3l-0.5-0.5l2.9,0.6l0-1.1l-4.6-2.7l1.9,0.3
	l-0.6-0.5l3.2,0.7l0-0.9l-5-3.1l2.1,0.3l-0.6-0.6l3.5,0.8l0-1.4l-5.9-3.3l2.5,0.3l-0.7-0.6l4.1,0.8l0-2l-6.4-1.8l-2.1,3.9h1.3
	l-2.2,4h1.2l-2.5,4.7h1.1l-3.2,5.8l-3.1-5.8h1.1l-2.5-4.7h1.2l-2.2-4h1.3l-2.5-4.6h1.5l-1.7-3.1l-3.9-1.1l-0.3,1.3h1.4l-4.2,17
	l-4.2-17h1.5l-0.7-2.9h1l-11-3.2l-1.8,3.4h1.2l-2,3.6h1.1l-2.3,4.2h1l-2.8,5.2l-2.8-5.2h0.9l-2.3-4.2h1.1l-2-3.6h1.2l-2.3-4.1h1.3
	l-1.5-2.7l-12-3.4l-0.6,2.5h1.5l-4.2,17l-4.2-17h1.5l-0.7-2.9h2.8v-0.8l-9.2-2.6l-1.1,2h1.2l-2,3.6h1.1l-2.3,4.2h1l-2.8,5.2
	l-2.8-5.2h1l-2.3-4.2h1.1l-2-3.6h1.2l-2.2-4.1h1.3l-0.4-0.7l-8.5-2.4l-0.1,4.4l4.1-0.8l-0.7,0.6l2.5-0.3l-5.9,3.3l0,1.4l3.5-0.8
	l-0.6,0.6l2.1-0.3l-5,3.1l0,0.9l3.2-0.7l-0.5,0.5l1.9-0.3l-4.6,2.7l0,1.1l2.9-0.6l-0.5,0.5l1.7-0.3l-4.1,2.6v0.6l2.4-0.6l-0.4,0.4
	l1.4-0.2l-3.4,2.3l0,0.8l1.9-0.6l-0.3,0.4l1.1-0.2l-2.7,2.3l0,0.7l1.3-0.6l-0.2,0.4l0.8-0.2l-1.9,2.3v0.7l0.9-0.4l-0.9,2l-0.9-2
	l0.9,0.4l0-0.7l-1.9-2.3l0.8,0.2l-0.2-0.4l1.3,0.6l0-0.7l-2.7-2.3l1.1,0.2l-0.3-0.4l1.9,0.6v-0.8l-3.4-2.3l1.4,0.2l-0.4-0.4l2.4,0.6
	v-0.6l-4.1-2.6l1.7,0.3l-0.5-0.5l2.9,0.6l0-1.1l-4.6-2.7l1.9,0.3l-0.6-0.5l3.2,0.7l0-0.9l-5-3.1l2.1,0.3l-0.6-0.6l3.5,0.8l0-1.4
	l-5.9-3.3l2.5,0.3l-0.7-0.6l4.1,0.8l-0.1-4.6l-19.5-5.6l-5.7,1.6l-1.4,2.6h1.3l-2.3,4.1h1.2l-2,3.6h1.1l-2.3,4.2h0.9l-2.8,5.2
	l-2.8-5.2h0.9l-2.3-4.2h1.1l-2-3.6h1.2l-1.8-3.3l-7.4,2.2l-0.1,5.1l4.1-0.8l-0.7,0.6l2.5-0.3l-5.9,3.3l0,1.4l3.5-0.8l-0.6,0.6
	l2.1-0.3l-5,3.1l0,0.9l3.2-0.7l-0.5,0.5l1.9-0.3l-4.6,2.7l0,1.1l2.9-0.6l-0.5,0.5l1.7-0.3l-4.1,2.6v0.6l2.4-0.6l-0.4,0.4l1.4-0.2
	l-3.4,2.3v0.8l1.9-0.6l-0.3,0.4l1.1-0.2l-2.7,2.3l0,0.7l1.3-0.6l-0.2,0.4l0.8-0.2l-1.9,2.3l0,0.7l0.9-0.5l-0.9,2l-0.9-2l0.9,0.5
	v-0.7l-1.9-2.3l0.8,0.2l-0.2-0.4l1.3,0.6l0-0.7l-2.7-2.3l1.1,0.2l-0.3-0.4l1.9,0.6l0-0.8l-3.4-2.3l1.4,0.2l-0.4-0.4l2.4,0.6v-0.6
	l-4.1-2.6l1.7,0.3l-0.5-0.5l2.9,0.6l0-1.1l-4.6-2.7l1.9,0.3l-0.5-0.5l3.2,0.7l0-0.9l-5-3.1l2.1,0.3l-0.6-0.6l3.5,0.8l0-1.4l-5.9-3.3
	l2.5,0.3l-0.7-0.6l4.1,0.8l-0.1-4.9l-12.6,3.7l-2,3.8h1.3l-2.2,4.1h1.2l-2,3.6h1.1l-2.3,4.2h1l-2.8,5.2l-2.8-5.2h1l-2.3-4.2h1.1
	l-2-3.6h1.2l-2.2-4.1h1.3l-0.2-0.3l-6.8,2h0.2l-0.9,3.4h1.8l-5,20.4l-2.8-11.4l-2.1,3.8h1.3l-2.7,5h1.1l-3.4,6.2l-3.4-6.2h1.2
	l-2.7-5h1.3l-2.4-4.3H96l-2.7-5h1.6l-0.8-1.5l-9.6,2.8h0l-2.4,4.4h1.4l-2.3,4.2h1.2l-2,3.7h1.1l-2.3,4.3h1l-2.9,5.3l-2.9-5.3h1
	l-2.3-4.3h1.1l-2-3.7h1.2l-2.3-4.2h1.4l-0.4-0.7l-13.7,4l0,2.9l4.1-0.8l-0.7,0.6l2.5-0.3l-5.9,3.3l0,1.4l3.5-0.8l-0.6,0.6l2.1-0.3
	l-5,3.1l0,0.9l3.2-0.7l-0.6,0.5l1.9-0.3l-4.6,2.7l0,1.1l2.9-0.6l-0.5,0.5l1.7-0.3l-4.1,2.6v0.6l2.4-0.6l-0.4,0.4l1.4-0.2l-3.4,2.3
	v0.8l1.9-0.6l-0.3,0.4l1.1-0.2l-2.7,2.3l0,0.7l1.3-0.6l-0.2,0.4l0.8-0.2l-1.9,2.3l0,0.7l0.9-0.5l-0.9,2l-0.9-2l0.9,0.5v-0.7
	l-1.9-2.3l0.8,0.2l-0.2-0.4l1.3,0.6l0-0.7l-2.7-2.3l1.1,0.2l-0.3-0.4l1.9,0.6l0-0.8l-3.4-2.3l1.4,0.2l-0.4-0.4l2.4,0.6v-0.6
	l-4.1-2.6l1.7,0.3l-0.5-0.5l2.9,0.6l0-1.1l-4.6-2.7l1.9,0.3l-0.5-0.5l3.2,0.7l0-0.9l-5-3.1l2.1,0.3l-0.6-0.6l3.5,0.8l0-1.4l-5.9-3.3
	l2.5,0.3l-0.7-0.6l4.1,0.8l0-2.7l-8.6,2.5l-0.6,2.6h1.4l-4.2,17l-4.2-17H43l-0.2-0.8l-3.3,1l-10.2-3l-2.1,3.9h1.2l-2,3.7h1.1
	l-2.3,4.3h1l-2.9,5.3l-2.9-5.3h1l-2.3-4.3h1.1l-2-3.7h1.2l-2.3-4.2h1.4l-1.9-3.4L0,236.6v-64.5h419v88.3l-5.8-3.2l-1.1,1.9h1.2
	l-2,3.6h1.1l-2.3,4.2h1l-2.8,5.2l-2.8-5.2h0.9l-2.3-4.2h1.1l-1.5-2.8L398,263l0,1.4l3.5-0.8l-0.6,0.6l2.1-0.3l-5,3.1l0,0.9l3.2-0.7
	l-0.6,0.5l1.9-0.3l-4.6,2.7l0,1.1l2.8-0.6l-0.5,0.5l1.7-0.3l-4.1,2.6v0.6l2.4-0.6l-0.4,0.4l1.4-0.2l-3.4,2.3l0,0.8l1.9-0.6l-0.3,0.4
	l1.1-0.2l-2.7,2.3l0,0.7l1.3-0.6l-0.2,0.4l0.8-0.2l-1.9,2.3v0.7l0.9-0.5l-0.9,2L396.8,281.7z M381.8,265.6L381.8,265.6L381.8,265.6
	L381.8,265.6z M398.1,260.3l4.1-0.8l-0.7,0.6l2.2-0.3l-0.4-0.7h1.2l-2.2-4.1h1.3l-0.6-1.1l-4.8,2.7L398.1,260.3z M397.4,260.3l0-3.3
	l-5.2,2.9l1.9,0.2l-0.7-0.6L397.4,260.3z M363.5,259.9h1.4l-1.4-0.8V259.9z M319.9,245.5l4.1-0.8l-0.7,0.6l1.7-0.2l-1.5-2.8h1.5
	l-0.4-0.7l-4.6,1.3L319.9,245.5z M286.7,245.5l3.8-0.7l-3.8-1.1L286.7,245.5z M290.1,245.3l1.7-0.2l-1-0.3L290.1,245.3z M28.1,244.8
	L28.1,244.8L28.1,244.8L28.1,244.8z M105.2,238.6h1l-0.3-1.3L105.2,238.6z M219.2,224.7h1.6l-1.6-0.4V224.7z"/>
<path id="Unión_238" class="st2" d="M402.7,250.3l1.3,0.7l0-1.1l-2.6-3.3l1.1,0.3l-0.3-0.6l1.8,0.8l0-1l-3.8-3.3l1.6,0.3l-0.5-0.6
	l2.6,0.8v-1.1l-4.8-3.3l2,0.3l-0.6-0.6l3.3,0.8l0-0.9l-5.8-3.7l2.4,0.4l-0.7-0.7l4,0.9l0-1.6l-6.5-3.9l2.7,0.4l-0.8-0.7l4.5,0.9
	l0-1.3l-7.1-4.4l3,0.4l-0.9-0.8l4.9,1.1l0-2l-8.3-4.6l3.5,0.5l-1-0.9l5.8,1.1l0-2.5l-8.9-3.3l-2.3,4.3h1.6l-2.6,4.9h1.4l-3.1,5.7
	h1.3l-3.8,7l-3.8-7h1.3l-3.1-5.7h1.4l-2.6-4.9h1.6l-3-5.6h1.8l-2.6-4.8l-12.8-4.7l-2.9,5.4h1.6l-2.7,4.9h1.4l-3.1,5.7h1.3l-3.8,7
	l-3.8-7h1.3l-3.1-5.7h1.4l-2.7-4.9h1.6l-3-5.6h1.8l-3.1-5.8h1.4l-14.2-5.2l-0.1,4.2l5.8-1.1l-1,0.9l3.5-0.5l-8.4,4.6l0,2l4.9-1.1
	l-0.9,0.8l3-0.4l-7.1,4.4l0,1.3l4.6-1l-0.8,0.7l2.7-0.4l-6.5,3.9l0,1.6l4-0.9l-0.7,0.7l2.4-0.4l-5.8,3.7l0,0.9l3.3-0.8l-0.6,0.6
	l2-0.3l-4.8,3.3l0,1.1l2.6-0.8l-0.5,0.6l1.6-0.3l-3.8,3.3v1l1.8-0.8l-0.3,0.6l1.1-0.3l-2.6,3.3l0,1l1.3-0.6l-1.3,2.9l-1.3-2.9
	l1.3,0.7l0-1l-2.6-3.3l1.1,0.3l-0.3-0.6l1.8,0.8l0-1l-3.8-3.3l1.6,0.3l-0.5-0.6l2.7,0.8l0-1.1l-4.8-3.3l2,0.3L331,215l3.3,0.8v-0.9
	l-5.8-3.7l2.4,0.4l-0.7-0.7l4,0.9l0-1.6l-6.5-3.9l2.7,0.4l-0.8-0.7l4.5,1l0-1.3l-7.1-4.4l3,0.4l-0.9-0.8l4.9,1.1l0-2l-8.3-4.6
	l3.5,0.5l-1-0.9l5.8,1.1l-0.1-4.6l-7.7-2.9l-0.8,1.5h2.4l-4.1,7.5h2.1l-3.6,6.6h1.9l-4.1,7.6h1.7l-5.1,9.4l-5.1-9.4h1.7l-4.1-7.6
	h1.9l-3.6-6.6h2.1l-4.1-7.5h2.4l-4.2-7.7h5.4l-26.3-9.7L419,152.8V223l-8-3l-6.6,3.7l0,2l4.9-1.1l-0.9,0.8l3-0.4l-7.1,4.4l0,1.3
	l4.5-0.9l-0.8,0.7l2.7-0.4l-6.5,3.9l0,1.6l4-0.9l-0.7,0.7l2.4-0.4l-5.8,3.7l0,0.9l3.3-0.8l-0.6,0.6l2-0.3l-4.8,3.3l0,1.1l2.6-0.8
	l-0.5,0.6l1.6-0.3l-3.8,3.3l0,1l1.8-0.8l-0.3,0.6l1.1-0.3l-2.6,3.3l0,1.1l1.3-0.7l-1.3,2.9L402.7,250.3z M404.5,219.7l3.8-0.8
	l-3.8-1.4L404.5,219.7z M409.3,219.5l0.3,0l-0.2-0.1L409.3,219.5z M363.7,202.8h0.9l-0.8-0.3L363.7,202.8z"/>
<path id="Unión_239" class="st2" d="M14.4,244.1l1.3,0.7l0-1.1l-2.7-3.3l1.1,0.3l-0.3-0.6l1.9,0.8v-1l-3.9-3.3l1.6,0.3l-0.5-0.6
	l2.7,0.8l0-1.1l-4.9-3.3l2,0.3l-0.6-0.6l3.4,0.8l0-0.9l-5.9-3.7l2.4,0.4l-0.7-0.7l4.1,0.9l0-1.6l-6.6-3.9l2.8,0.4l-0.8-0.7l4.6,0.9
	l0-1.3l-7.2-4.4l3,0.4l-0.9-0.8l5,1.1l0-2l-8.5-4.6l3.6,0.5l-1-0.9l5.9,1.1l-0.1-7.1L0,210.7v-57.9l137.8,19.9l-22,6.1l-2.9,5.2h2.5
	l-4.2,7.5h2.2l-3.6,6.6h2l-4.2,7.6h1.7l-5.2,9.5l-5.2-9.5h1.8l-4.2-7.6h2l-3.6-6.6h2.2l-3.6-6.6l-6.8,1.9l0,3.1l5.9-1.1l-1,0.9
	l3.6-0.5l-8.5,4.6l0,2l5-1.1l-0.9,0.8l3-0.4l-7.2,4.4l0,1.3l4.6-1l-0.8,0.7l2.8-0.4l-6.6,3.9l0,1.6l4.1-0.9l-0.7,0.7l2.4-0.4
	l-5.9,3.7l0,0.9l3.4-0.8l-0.6,0.6l2-0.3l-4.9,3.3l0,1.1l2.7-0.8l-0.5,0.6l1.6-0.3l-3.8,3.3l0,1l1.9-0.8l-0.3,0.6l1.1-0.3l-2.7,3.3
	l0,1l1.3-0.7l-1.4,2.9l-1.3-2.9l1.3,0.7l0-1l-2.7-3.3l1.1,0.3l-0.3-0.6l1.9,0.8l0-1l-3.8-3.3l1.6,0.3l-0.5-0.6l2.7,0.8l0-1.1
	l-4.9-3.3l2,0.3l-0.6-0.6l3.4,0.8l0-0.9l-5.9-3.7l2.4,0.4l-0.7-0.7l4.1,0.9l0-1.6l-6.6-3.9l2.8,0.4l-0.8-0.7l4.6,1l0-1.3l-7.2-4.4
	l3,0.4l-0.9-0.8l5,1.1l0-2l-8.3-4.5l-5.9,1.6h1.1l-3.2,5.8h1.8l-3.1,5.6H70l-2.7,4.9h1.5l-3.1,5.7H67l-3.9,7l-3.9-7h1.3l-3.1-5.7
	h1.5l-2.7-4.9h1.6l-3.1-5.6h1.8l-0.8-1.4l-19.5,5.4h6.2l-3.2,5.8h1.8l-3.1,5.6h1.6l-2.7,4.9h1.5l-3.1,5.6h1.3l-3.8,7l-3.9-7h1.3
	l-3.1-5.6h1.5l-2.7-4.9h1.6l-3.1-5.6h1.8l-1.4-2.6l-8.6,2.4l-0.1,7.4l5.9-1.1l-1,0.9l3.6-0.5l-8.5,4.6l0,2l5-1.1l-0.9,0.8l3-0.4
	l-7.2,4.4l0,1.3l4.6-0.9l-0.8,0.7l2.8-0.4l-6.6,3.9l0,1.6l4.1-0.9l-0.7,0.7l2.4-0.4l-5.9,3.7v0.9l3.4-0.8l-0.6,0.6l2-0.3l-4.9,3.3
	l0,1.1l2.7-0.8l-0.5,0.6l1.6-0.3l-3.8,3.3l0,1l1.9-0.8l-0.3,0.6l1.1-0.3l-2.7,3.3l0,1l1.3-0.7l-1.3,2.9L14.4,244.1z M85.8,189.9
	l0-2.9l-7.9,2.2l3.1,0.4l-1-0.9L85.8,189.9z"/>
<linearGradient id="Trazado_2262_1_" gradientUnits="userSpaceOnUse" x1="-789.1946" y1="1139.1068" x2="-788.9216" y2="1138.6198" gradientTransform="matrix(155.812 0 0 -51.1 123009.7188 58254.0625)">
	<stop  offset="0" style="stop-color:#FFBBBB"/>
	<stop  offset="1" style="stop-color:#FFFFFF"/>
</linearGradient>
<path id="Trazado_2262" class="st3" d="M83.3,20.5L5.4,71.6h155.8L83.3,20.5z"/>
<linearGradient id="Trazado_2263_1_" gradientUnits="userSpaceOnUse" x1="-788.2005" y1="1139.0889" x2="-788.7524" y2="1138.434" gradientTransform="matrix(96.344 0 0 -51.1 76029.9922 58254.0625)">
	<stop  offset="0" style="stop-color:#D03333"/>
	<stop  offset="1" style="stop-color:#FFFFFF"/>
</linearGradient>
<path id="Trazado_2263" class="st4" d="M83.3,20.5l3.9,7.5l-9.1,7.3l18.8,3l2.7,14.8l2.1,18.5H5.4L83.3,20.5z"/>
<linearGradient id="Trazado_2264_1_" gradientUnits="userSpaceOnUse" x1="-789.2596" y1="1139.2319" x2="-788.9236" y2="1138.5879" gradientTransform="matrix(155.812 0 0 -51.1 123264.1641 58254.0625)">
	<stop  offset="0" style="stop-color:#FFBBBB"/>
	<stop  offset="1" style="stop-color:#FFFFFF"/>
</linearGradient>
<path id="Trazado_2264" class="st5" d="M337.7,20.5l-77.9,51.1h155.8L337.7,20.5z"/>
<linearGradient id="Trazado_2265_1_" gradientUnits="userSpaceOnUse" x1="-788.7244" y1="1138.4139" x2="-788.1815" y2="1139.197" gradientTransform="matrix(96.3431 0 0 -51.1 76283.7578 58254.0625)">
	<stop  offset="0" style="stop-color:#FFFFFF"/>
	<stop  offset="1" style="stop-color:#D03333"/>
</linearGradient>
<path id="Trazado_2265" class="st6" d="M337.7,20.5l3.9,7.5l-9.1,7.3l18.7,3l2.7,14.8l2.1,18.5h-96.3L337.7,20.5z"/>
<linearGradient id="Trazado_2266_1_" gradientUnits="userSpaceOnUse" x1="-789.1083" y1="1141.2266" x2="-788.7214" y2="1140.7166" gradientTransform="matrix(161.421 0 0 -82.948 127693.0469 94731.3438)">
	<stop  offset="0" style="stop-color:#FFBBBB"/>
	<stop  offset="1" style="stop-color:#FFFFFF"/>
</linearGradient>
<path id="Trazado_2266" class="st7" d="M419,55.4l-35.7-23.6l-125.7,82.9H419V55.4z"/>
<linearGradient id="Trazado_2267_1_" gradientUnits="userSpaceOnUse" x1="-788.4116" y1="1141.3301" x2="-788.9907" y2="1140.6141" gradientTransform="matrix(156.4041 0 0 -82.947 123729.6406 94730.2266)">
	<stop  offset="0" style="stop-color:#D03333"/>
	<stop  offset="1" style="stop-color:#FFFFFF"/>
</linearGradient>
<path id="Trazado_2267" class="st8" d="M384.1,31.8v15.8l8.3,1.9l-11.8,20.6l30,14.5l3.4,30.1H257.6L384.1,31.8z"/>
<linearGradient id="Trazado_2268_1_" gradientUnits="userSpaceOnUse" x1="-789.3785" y1="1141.2034" x2="-789.1715" y2="1140.9613" gradientTransform="matrix(162.421 0 0 -82.948 128226.4531 94731.3438)">
	<stop  offset="0" style="stop-color:#FFBBBB"/>
	<stop  offset="1" style="stop-color:#FFFFFF"/>
</linearGradient>
<path id="Trazado_2268" class="st9" d="M1,114.8h162.4L36.9,31.8L1,55.4V114.8z"/>
<linearGradient id="Trazado_2269_1_" gradientUnits="userSpaceOnUse" x1="-788.0277" y1="1141.1229" x2="-789.0267" y2="1140.6379" gradientTransform="matrix(66.87 0 0 -82.947 52740.1641 94730.2266)">
	<stop  offset="0" style="stop-color:#D03333"/>
	<stop  offset="1" style="stop-color:#FFFFFF"/>
</linearGradient>
<path id="Trazado_2269" class="st10" d="M0,55.4v59.4h66.9l-3.5-30.1L32.9,70.2l12-20.6l-8.4-1.9V31.8L0,55.4z"/>
<linearGradient id="Trazado_2270_1_" gradientUnits="userSpaceOnUse" x1="-789.527" y1="1141.4137" x2="-789.147" y2="1140.4738" gradientTransform="matrix(419 0 0 -84.1749 330923.875 96134.9219)">
	<stop  offset="0" style="stop-color:#FFBBBB"/>
	<stop  offset="1" style="stop-color:#FFFFFF"/>
</linearGradient>
<path id="Trazado_2270" class="st11" d="M289.1,30.6l-79.6,51.6l-79.6-51.6L0,114.8h419L289.1,30.6z"/>
<linearGradient id="Trazado_2260_1_" gradientUnits="userSpaceOnUse" x1="-789.4803" y1="1142.0482" x2="-789.1273" y2="1141.3623" gradientTransform="matrix(354.918 0 0 -114.752 280331.0938 131115.1094)">
	<stop  offset="0" style="stop-color:#FFBBBB"/>
	<stop  offset="1" style="stop-color:#FFFFFF"/>
</linearGradient>
<path id="Trazado_2260" class="st12" d="M210.5,0L33,114.8H388L210.5,0z"/>
<linearGradient id="Trazado_2271_1_" gradientUnits="userSpaceOnUse" x1="-786.6318" y1="1135.4969" x2="-788.2308" y2="1134.2849" gradientTransform="matrix(31.272 0 0 -31.021 24893.3691 35273.6719)">
	<stop  offset="0" style="stop-color:#D03333"/>
	<stop  offset="1" style="stop-color:#FFFFFF"/>
</linearGradient>
<path id="Trazado_2271" class="st13" d="M291.7,30.6l-16,10.5l31.3,20.5L291.7,30.6z"/>
<linearGradient id="Trazado_2261_1_" gradientUnits="userSpaceOnUse" x1="-788.7917" y1="1142.2371" x2="-789.7457" y2="1140.557" gradientTransform="matrix(253.4 0 0 -114.752 200099.8594 131115.1094)">
	<stop  offset="0" style="stop-color:#D03333"/>
	<stop  offset="1" style="stop-color:#FFFFFF"/>
</linearGradient>
<path id="Trazado_2261" class="st14" d="M245.3,42.8l-33.1-11.1l9.4-8.8l-9.4-23l-73.4,47.2l-6.8-16.6L1,114.8h253.4l-17.2-28.3
	L245.3,42.8z"/>
<linearGradient id="Unión_234_1_" gradientUnits="userSpaceOnUse" x1="-789.2921" y1="1142.1644" x2="-789.2921" y2="1141.2815" gradientTransform="matrix(419 0 0 -95.234 330922.875 108815.3203)">
	<stop  offset="0" style="stop-color:#FEAF66"/>
	<stop  offset="1" style="stop-color:#D03333"/>
</linearGradient>
<path id="Unión_234" class="st15" d="M239.3,143.6H0V69l4.9,2.7L5.8,70h-1l1.7-3H5.6l1.9-3.5H6.7l2.4-4.4l2.4,4.4h-0.8l1.9,3.5
	h-0.9l1.3,2.4l4.8-2.6l0-1.2l-2.9,0.6l0.5-0.5L13.6,66l4.2-2.6l0-0.8l-2.7,0.6l0.5-0.4l-1.6,0.2l3.9-2.3l0-0.9l-2.4,0.5l0.4-0.4
	l-1.4,0.2l3.5-2.2v-0.5l-2,0.5l0.3-0.4L15,57.7l2.9-1.9l0-0.7l-1.6,0.5l0.3-0.4l-0.9,0.2l2.3-2v-0.6l-1.1,0.5L17,53l-0.6,0.2l1.6-2
	l0-0.6L17.2,51l0.8-1.7l0.8,1.7L18,50.6l0,0.6l1.6,2L18.9,53l0.2,0.4L18,52.8l0,0.6l2.3,2l-0.9-0.2l0.3,0.4L18,55.1l0,0.7l2.9,1.9
	l-1.2-0.2l0.3,0.4l-2-0.5l0,0.5l3.4,2.2l-1.4-0.2l0.4,0.4l-2.4-0.5l0,0.9l3.9,2.3l-1.6-0.2l0.5,0.4l-2.7-0.6v0.8l4.2,2.6l-1.8-0.3
	l0.5,0.5l-2.9-0.6l0,1.2l4.7,2.6l3.7-2h-2.7l1.5-2.7h-0.9l1.4-2.7h-0.8l1.3-2.3h-0.7l1.5-2.7h-0.6l1.8-3.3l1.8,3.3h-0.6l1.5,2.7
	h-0.7l1.3,2.3h-0.8l1.3,2.3l2.1-1.1l10.5,5.8l0.5-1.9h-1.2l3.5-14.4L51,67h-1.2l0.6,2.4H48v1.3l6.7,3.7l0.6-1.1h-1l1.7-3H55l1.9-3.5
	h-0.8l2.4-4.4l2.4,4.4h-0.8l1.9,3.5h-0.9l1.7,3h-1l1.9,3.5h-1.1l1.5,2.8l5.2,2.9l1.2-2.1h-1.1l1.8-3.4h-1l2.1-3.9h-0.9l2.7-4.9
	l2.7,4.9h-0.9l2.1,3.9h-1l1.8,3.4h-1.1l2.1,3.9h-1.3l0.4,0.8l4.6-1.3l0-2.2l-3.5,0.7l0.6-0.5L78.8,82l5-2.8l0-1.2l-2.9,0.6l0.5-0.5
	l-1.8,0.3l4.2-2.6l0-0.8l-2.7,0.6l0.5-0.4l-1.6,0.2l3.9-2.3l0-0.9l-2.4,0.5l0.4-0.4l-1.4,0.2l3.4-2.2l0-0.5l-2,0.5l0.3-0.4L81,70.2
	l2.9-1.9l0-0.7l-1.6,0.5l0.3-0.4l-0.9,0.2l2.3-2l0-0.6l-1.1,0.5l0.2-0.4l-0.6,0.2l1.6-2l0-0.6l-0.8,0.4l0.8-1.7l0.8,1.7L84,63.1v0.6
	l1.6,2l-0.7-0.2l0.2,0.4L84,65.4V66l2.3,2l-0.9-0.2l0.3,0.4L84,67.6v0.7l2.9,1.9L85.7,70l0.3,0.4l-2-0.5v0.5l3.5,2.2l-1.4-0.2
	l0.4,0.4l-2.4-0.5l0,0.9l3.9,2.3l-1.6-0.2l0.5,0.4l-2.7-0.6l0,0.8l4.2,2.6l-1.8-0.2l0.5,0.5l-2.9-0.6l0,1.2l5,2.8l-2.1-0.3l0.6,0.5
	l-3.5-0.7l0,2l6.9-2l1-1.9h-1.1l1.9-3.5h-1l1.7-3.1h-0.9l1.9-3.5h-0.8l2.4-4.4l2.4,4.4h-0.8l1.9,3.5h-0.9l1.7,3.1h-1l1.9,3.5h-1.1
	l7,2l4.5-2.5l0-1.2l-2.9,0.6l0.5-0.5l-1.8,0.3l4.2-2.6v-0.8l-2.7,0.6l0.5-0.4l-1.6,0.2l3.9-2.3l0-0.9l-2.4,0.5l0.4-0.4l-1.4,0.2
	l3.4-2.2l0-0.5l-2,0.5l0.3-0.4l-1.2,0.2l2.9-1.9l0-0.7l-1.6,0.5l0.3-0.4l-0.9,0.2l2.3-2l0-0.6l-1.1,0.5l0.2-0.4l-0.6,0.2l1.6-2
	l0-0.6l-0.8,0.4l0.8-1.7l0.8,1.7l-0.8-0.4l0,0.6l1.6,2l-0.6-0.2l0.2,0.4l-1.1-0.5l0,0.6l2.3,2l-0.9-0.2l0.3,0.4l-1.6-0.5l0,0.7
	l2.9,1.9l-1.2-0.2l0.3,0.4l-2-0.5l0,0.5l3.4,2.2l-1.4-0.2l0.4,0.4l-2.4-0.5l0,0.9l3.9,2.3l-1.6-0.2l0.5,0.4l-2.7-0.6v0.8l4.2,2.6
	l-1.8-0.3l0.5,0.5l-2.9-0.6l0,1.2l5,2.8l-2.1-0.3l0.6,0.5l-3.5-0.7l0,1.6l5.4,1.6l1.7-3.2h-1.1l1.9-3.4h-1l2.1-3.9h-0.9l2.7-4.9
	l2.7,4.9h-0.9l2.1,3.9h-1l1.8,3.4h-1.1l2.1,3.9h-1.3L129,88l3.4,1l0.2-1h-1.2l3.5-14.4l3.5,14.4h-1.2l0.6,2.4h-0.5l9,2.6l1.5-2.8h-1
	l1.7-3.1h-0.9l1.9-3.5h-0.8l2.4-4.4l2.4,4.4h-0.8l1.9,3.5h-0.9l1.7,3.1h-1l1.9,3.5h-1.1l1.2,2.1l10.2,2.9l0.5-2h-1.2l3.5-14.4
	l3.5,14.4h-1.2l0.6,2.4H170v0.6l7.8,2.2l0.8-1.5h-1l1.7-3h-0.9l1.9-3.5h-0.8l2.4-4.4l2.4,4.4h-0.8l1.9,3.5h-0.9l1.7,3h-1l1.9,3.5
	H186l0.2,0.4l7.2,2.1l0-3.6l-3.4,0.7l0.6-0.5l-2.1,0.3l5-2.8l0-1.2l-2.9,0.6l0.5-0.5l-1.8,0.3l4.2-2.6l0-0.8l-2.7,0.6l0.5-0.4
	l-1.6,0.2l3.9-2.3l0-0.9l-2.4,0.5l0.4-0.4l-1.4,0.2l3.4-2.2l0-0.5l-2,0.5l0.4-0.4l-1.2,0.2l2.9-1.9l0-0.7l-1.6,0.5l0.3-0.4l-0.9,0.2
	l2.3-2l0-0.6l-1.1,0.5l0.2-0.4l-0.7,0.2l1.6-2l0-0.6l-0.8,0.4l0.8-1.7l0.8,1.7l-0.8-0.4V85l1.6,2l-0.7-0.2l0.2,0.4l-1.1-0.5v0.6
	l2.3,2l-0.9-0.2l0.3,0.4l-1.6-0.5v0.7l2.9,1.9l-1.2-0.2l0.3,0.4l-2-0.5v0.5l3.4,2.2l-1.4-0.2l0.4,0.4l-2.4-0.5l0,0.9l3.9,2.3
	l-1.6-0.2l0.5,0.4l-2.7-0.6l0,0.8l4.2,2.6l-1.8-0.3l0.5,0.5l-2.9-0.6l0,1.2l5,2.8l-2.1-0.3l0.6,0.5l-3.5-0.7l0.1,3.8l15.5,4.4
	l6.2-1.8l0.7-1.4h-1.1l1.9-3.5h-1l1.7-3H217l1.9-3.5h-0.8l2.4-4.4l2.4,4.4h-0.8l1.9,3.5h-0.9l1.7,3h-1l1.2,2.2l6.6-1.9l0.1-3.7
	l-3.5,0.7l0.6-0.5l-2.1,0.3l5-2.8l0-1.2l-2.9,0.6l0.5-0.5l-1.8,0.3l4.2-2.6l0-0.8l-2.7,0.6l0.5-0.4l-1.6,0.2l3.9-2.3l0-0.9l-2.4,0.5
	l0.4-0.4l-1.4,0.2l3.4-2.2v-0.5l-2,0.5l0.3-0.4l-1.2,0.2l2.9-1.9V87l-1.6,0.5l0.3-0.4l-0.9,0.2l2.3-2v-0.6l-1.1,0.5l0.2-0.4
	l-0.6,0.2l1.6-2v-0.6l-0.8,0.4l0.8-1.7l0.8,1.7l-0.8-0.4l0,0.6l1.6,2l-0.6-0.2l0.2,0.4l-1.1-0.5l0,0.6l2.3,1.9l-0.9-0.2l0.3,0.4
	l-1.6-0.5l0,0.7l2.9,1.9l-1.2-0.2l0.4,0.4l-2-0.5l0,0.5l3.4,2.2l-1.4-0.2l0.4,0.4l-2.4-0.5l0,0.9l3.9,2.3l-1.6-0.2l0.5,0.4l-2.7-0.6
	l0,0.8l4.2,2.6l-1.8-0.3l0.5,0.5l-2.9-0.6l0,1.2l5,2.8l-2.1-0.3l0.6,0.5l-3.4-0.7l0,3.5l11-3.2l1.4-2.5h-1.1l1.9-3.5h-1l1.7-3h-0.9
	l1.9-3.5h-0.8l2.4-4.4l2.4,4.4h-0.8l1.9,3.5h-0.9l1.7,3h-1l1.7,3.1l4.9-1.4l0.6-2.4h-1.5l4.3-17.3l2.4,9.7l1.8-3.2h-1.1l2.3-4.2h-1
	l2.9-5.2l2.8,5.2h-1l2.3,4.2h-1.1l2,3.7H273l2.3,4.2h-1.3l0.5,0.9l8.5-2.4l1.8-3.2h-1.2l2-3.6h-1l1.7-3.1h-0.9l2-3.6h-0.8l2.4-4.5
	l2.5,4.5h-0.8l2,3.6h-0.9l1.7,3.1h-1l2,3.6h-1.2l0.2,0.3l11.2-3.2l0-2.3l-3.4,0.7l0.6-0.5l-2.1,0.3l5-2.8l0-1.2l-2.9,0.6l0.5-0.5
	l-1.8,0.3l4.2-2.6l0-0.8l-2.7,0.6l0.5-0.4l-1.6,0.2l3.9-2.3l0-0.9l-2.4,0.5l0.4-0.4l-1.4,0.2l3.4-2.2l0-0.5l-2,0.5l0.4-0.4l-1.2,0.2
	l2.9-1.9l0-0.7l-1.6,0.5l0.3-0.4l-0.9,0.2l2.3-2l0-0.6l-1.1,0.5l0.2-0.4l-0.6,0.2l1.6-2l0-0.6l-0.8,0.4l0.8-1.7l0.8,1.7l-0.8-0.4
	v0.6l1.6,2l-0.7-0.2l0.2,0.4l-1.1-0.5V66l2.3,2l-0.9-0.2l0.3,0.4l-1.6-0.5v0.7l2.9,1.9l-1.2-0.2l0.3,0.4l-2-0.5v0.5l3.4,2.2
	l-1.4-0.2l0.4,0.4l-2.4-0.5l0,0.9l3.9,2.3l-1.6-0.2l0.5,0.4l-2.7-0.6l0,0.8l4.2,2.6l-1.8-0.2l0.5,0.5l-2.9-0.6l0,1.2l5,2.8l-2.1-0.3
	l0.6,0.5l-3.5-0.7l0,2.1l7.4-2.1l0.5-2.1h-1.2l3.5-14.4l3.5,14.4h-1.2l0.1,0.6l2.5-0.7l9.1,2.6l1.9-3.4h-1l1.7-3.1h-0.9l2-3.6h-0.8
	l2.4-4.5l2.4,4.5h-0.8l2,3.6H337l1.7,3.1h-1l2,3.6h-1.2l1.6,3l3.2,0.9l3.3-1.8l1.8-3.4h-1.2l2-3.6h-1l1.7-3.1H349l2-3.6h-0.8
	l2.5-4.5l2.4,4.5h-0.8l2,3.6h-0.9l1.7,3.1h-1l0.8,1.4l5.7-3.2l0-0.9h-0.6l0.3-0.6l-3.2,0.6l0.6-0.5l-2.1,0.3l5-2.8l0-1.2l-2.9,0.6
	l0.5-0.5l-1.8,0.3l4.2-2.6v-0.8l-2.7,0.6l0.5-0.4l-1.6,0.2l3.9-2.3l0-0.9l-2.4,0.5l0.4-0.4l-1.4,0.2l3.5-2.2v-0.5l-2,0.5l0.3-0.4
	l-1.2,0.2l2.9-1.9l0-0.7l-1.6,0.5l0.3-0.4l-0.9,0.2l2.3-2l0-0.6l-1.1,0.5l0.2-0.4L361,58l1.6-2l0-0.6l-0.8,0.4l0.8-1.7l0.8,1.7
	l-0.8-0.4l0,0.6l1.6,2l-0.6-0.2l0.2,0.4l-1.1-0.5l0,0.6l2.3,2L364,60l0.3,0.4l-1.6-0.5l0,0.7l2.6,1.8l1-1.8h-0.8l2.5-4.5l2.4,4.5
	h-0.8l2,3.6h-0.9l1.7,3.1h-1l1.4,2.5l12.2-6.8l15.1,8.3l0-3.2l-3.5,0.7l0.6-0.5l-2.1,0.3l5-2.8l0-1.2l-2.9,0.6l0.5-0.5l-1.8,0.3
	l4.2-2.6l0-0.8l-2.7,0.6l0.5-0.4l-1.6,0.2l3.9-2.3l0-0.9l-2.4,0.5l0.4-0.4l-1.4,0.2l3.4-2.2v-0.5l-2,0.5l0.3-0.4l-1.2,0.2l2.9-1.9
	v-0.7l-1.6,0.5l0.3-0.4l-0.9,0.2l2.3-2v-0.6l-1.1,0.5l0.2-0.4l-0.6,0.2l1.6-2v-0.6l-0.8,0.4l0.8-1.7L401,50l-0.8-0.4l0,0.6l1.6,2
	l-0.7-0.2l0.2,0.4l-1.1-0.5l0,0.6l2.3,2l-0.9-0.2l0.3,0.4l-1.6-0.5l0,0.7l2.9,1.9l-1.2-0.2l0.4,0.4l-2-0.5l0,0.5l3.4,2.2l-1.4-0.2
	l0.4,0.4l-2.4-0.5l0,0.9l3.9,2.3l-1.6-0.2l0.5,0.4l-2.7-0.6l0,0.8l4.2,2.6l-1.8-0.3l0.5,0.5l-2.9-0.6l0,1.2l5,2.8l-2.1-0.3l0.6,0.5
	l-3.4-0.7l0,3.6l5.5,3.1l1.4-2.6h-1.2l2-3.6h-1l1.7-3.1h-0.9l2-3.6h-0.8l2.5-4.5l2.4,4.5h-0.8l2,3.6h-0.9l1.7,3.1h-1l1.1,2l3-1.7
	v74.6H239.3z M168.9,99.4v-0.3H168L168.9,99.4z M264.6,88.5l0.6-1.1h-0.9L264.6,88.5z M111.8,83l0-1.5l-3.1,0.6L111.8,83z
	 M330.1,82.3l0.1-0.1h-0.5L330.1,82.3z M108.5,82.1l0.4-0.4l-1.2,0.2L108.5,82.1z M362.9,75.2l1.1-0.6h-1.2L362.9,75.2z M13.6,74.4
	l4.1-2.3l0-3.1l-3.5,0.7l0.6-0.5L13,69.4l0.3,0.6h-1l1.9,3.5h-1.1L13.6,74.4z M18.3,71.8l4.4-2.4l-1.6-0.2l0.6,0.5L18.2,69
	L18.3,71.8z M362.8,71.6l0.4,0.2l0.5-1h-1L362.8,71.6z M362.8,70.5L362.8,70.5L362.8,70.5L362.8,70.5z M46.9,70.1v-0.7h-1.2
	L46.9,70.1z M362.8,68.2l1,0.6l0.6-1.1l-1.5-0.3L362.8,68.2z M362.8,65.5l1.3,0.8l0.7-1.3l-2-0.4L362.8,65.5z M364.9,64.8
	L364.9,64.8l-0.1-0.1L364.9,64.8z M31.4,64.5L31.4,64.5L31.4,64.5L31.4,64.5z M365.2,64.3l0.1-0.1H365L365.2,64.3z M362.7,62.7
	l1.8,1.1l0.7-1.4l-0.9-0.1l0.3,0.4l-2-0.5L362.7,62.7z"/>
<linearGradient id="Unión_236_1_" gradientUnits="userSpaceOnUse" x1="-789.2921" y1="1142.5273" x2="-789.2921" y2="1141.5273" gradientTransform="matrix(419 0 0 -111.6 330922.875 127567.2344)">
	<stop  offset="0" style="stop-color:#FEAF66"/>
	<stop  offset="1" style="stop-color:#D03333"/>
</linearGradient>
<path id="Unión_236" class="st16" d="M118.5,172.8H0V84.5l5.8,3.2l1.1-1.9H5.7l2-3.6H6.6L8.9,78h-1l2.8-5.2l2.8,5.2h-0.9l2.3,4.2
	h-1.1l1.5,2.8l5.7-3.1l0-1.4l-3.5,0.8l0.6-0.6L16.1,81l5-3.1l0-0.9l-3.2,0.7l0.6-0.5l-1.9,0.3l4.6-2.7l0-1.1l-2.8,0.6l0.5-0.5
	L17.1,74l4.1-2.6v-0.6l-2.4,0.6l0.4-0.4l-1.4,0.2l3.4-2.3l0-0.8l-1.9,0.6l0.3-0.4l-1.1,0.2l2.7-2.3l0-0.7L19.9,66l0.2-0.4l-0.8,0.2
	l1.9-2.3v-0.7l-0.9,0.5l0.9-2l0.9,2l-0.9-0.5l0,0.7l1.9,2.3l-0.8-0.2l0.2,0.4l-1.3-0.6l0,0.7l2.7,2.3l-1.1-0.2l0.3,0.4l-1.9-0.6v0.8
	l3.4,2.3l-1.4-0.2l0.4,0.4l-2.4-0.6l0,0.6l4.1,2.6l-1.7-0.3l0.5,0.5l-2.8-0.6l0,1.1l4.6,2.7l-1.9-0.3l0.6,0.5l-3.2-0.7v0.9l5,3.1
	l-2.1-0.3l0.6,0.6l-3.5-0.8l0,1.4l5.5,3.1l4.4-2.4h-3.3l1.8-3.2h-1l1.7-3.1h-0.9l1.5-2.8h-0.8l1.7-3.2h-0.7l2.2-3.9l2.1,3.9H35
	l1.7,3.2h-0.8l1.5,2.8h-0.9l1.5,2.8l2.5-1.4l12.4,6.9l0.5-2.2h-1.4l4.2-17l4.2,17h-1.5l0.7,2.9h-2.8v1.5l7.9,4.4l0.7-1.3h-1.2l2-3.6
	h-1.1l2.3-4.2h-1l2.8-5.2l2.8,5.2h-1l2.3,4.2h-1.1l2,3.6h-1.2l2.2,4.1H74l1.8,3.3l7,3.9l1.6-2.9h-1.3l2.2-4h-1.2l2.5-4.7h-1.1
	l3.2-5.8l3.2,5.8h-1.1l2.5,4.7h-1.2l2.2,4H93l0.9,1.6l5.2-2.9l0-1.4L95.6,96l0.6-0.6l-2.1,0.3l5-3.1l0-0.9l-3.2,0.7l0.6-0.5
	l-1.9,0.3l4.6-2.7l0-1.1L96.4,89l0.5-0.5l-1.7,0.3l4.1-2.6l0-0.6l-2.4,0.6l0.4-0.4L95.9,86l3.4-2.3v-0.8l-1.9,0.6l0.3-0.4l-1.1,0.2
	l2.7-2.3l0-0.7L98,80.8l0.2-0.4l-0.8,0.2l1.9-2.3l0-0.7L98.4,78l0.9-2l0.9,2l-0.9-0.5v0.7l1.9,2.3l-0.8-0.2l0.2,0.4l-1.3-0.6l0,0.7
	l2.7,2.3L101,83l0.3,0.4l-1.9-0.6l0,0.8l3.4,2.3l-1.4-0.2l0.4,0.4l-2.4-0.6v0.6l4.1,2.6l-1.7-0.3l0.5,0.5l-2.9-0.6l0,1.1l4.6,2.7
	l-1.9-0.3l0.6,0.5l-3.2-0.7l0,0.9l5,3.1l-2.1-0.3l0.6,0.6l-3.5-0.7l0,1.4l5.9,3.3l-2.5-0.3l0.7,0.6l-4.1-0.8l0,2.3l8.2-2.4l1.2-2.1
	h-1.3l2.2-4.1h-1.2l2-3.6h-1.1l2.3-4.2h-1l2.8-5.2l2.8,5.2h-1l2.3,4.2h-1.1l2,3.6h-1.2l2.2,4.1h-1.3l0.1,0.1l8.2,2.4l5.5-3l0-1.4
	l-3.5,0.7l0.6-0.6l-2.1,0.3l5-3.1l0-0.9l-3.2,0.7l0.6-0.5l-1.9,0.3l4.6-2.7l0-1.1l-2.9,0.6l0.5-0.5l-1.7,0.3l4.1-2.6v-0.6l-2.4,0.6
	l0.4-0.4l-1.4,0.2l3.4-2.3l0-0.8l-1.9,0.6L131,83l-1.1,0.2l2.7-2.3l0-0.7l-1.3,0.6l0.2-0.4l-0.8,0.2l1.9-2.3v-0.7l-0.9,0.5l0.9-2
	l0.9,2l-0.9-0.5l0,0.7l1.9,2.3l-0.8-0.2l0.2,0.4l-1.3-0.6l0,0.7l2.7,2.3l-1.1-0.2l0.3,0.4l-1.9-0.6v0.8l3.4,2.3l-1.4-0.2l0.4,0.4
	l-2.4-0.6l0,0.6l4.1,2.6l-1.7-0.3l0.5,0.5l-2.9-0.6l0,1.1l4.6,2.7l-1.9-0.3l0.6,0.5l-3.2-0.7l0,0.9l5,3.1l-2.1-0.3l0.6,0.6l-3.5-0.7
	l0,1.4l5.9,3.3l-2.5-0.3l0.7,0.6l-4.1-0.8l0,2l6.4,1.8l2.1-3.9h-1.3l2.2-4h-1.2l2.5-4.7h-1.1l3.2-5.8l3.1,5.8h-1.1l2.5,4.7h-1.2
	l2.2,4H150l2.5,4.6h-1.5l1.7,3.1l3.9,1.1l0.3-1.3h-1.4l4.2-17l4.2,17h-1.5l0.7,2.9h-1l11,3.2l1.8-3.4h-1.2l2-3.6h-1.1l2.3-4.2h-1
	l2.8-5.2l2.8,5.2h-0.9l2.3,4.2H182l2,3.6h-1.2l2.3,4.1h-1.3l1.5,2.7l12,3.4l0.6-2.5h-1.5l4.2-17l4.2,17h-1.5l0.7,2.9h-2.8v0.8
	l9.2,2.6l1.1-2h-1.2l2-3.6h-1.1l2.3-4.2h-1l2.8-5.2l2.8,5.2h-1l2.3,4.2h-1.1l2,3.6h-1.2l2.2,4.1H220l0.4,0.7l8.5,2.4l0.1-4.4
	l-4.1,0.8l0.7-0.6l-2.5,0.3l5.9-3.2l0-1.4l-3.5,0.8l0.6-0.6l-2.1,0.3l5-3.1l0-0.9l-3.2,0.7l0.5-0.5l-1.9,0.3l4.6-2.7l0-1.1l-2.9,0.6
	l0.5-0.5l-1.7,0.2l4.1-2.6v-0.6l-2.4,0.6l0.4-0.4l-1.4,0.2l3.4-2.3l0-0.8l-1.9,0.6l0.3-0.4l-1.1,0.2l2.7-2.3l0-0.7l-1.3,0.6l0.2-0.4
	l-0.8,0.2l1.9-2.3v-0.7l-0.9,0.5l0.9-2l0.9,2l-0.9-0.5l0,0.7l1.9,2.3l-0.8-0.2l0.2,0.4l-1.3-0.6l0,0.7l2.7,2.3l-1.1-0.2l0.3,0.4
	l-1.9-0.6v0.8l3.4,2.3l-1.4-0.2l0.4,0.4l-2.4-0.6v0.6l4.1,2.6l-1.7-0.2l0.5,0.5l-2.9-0.6l0,1.1l4.6,2.7l-1.9-0.3l0.6,0.5l-3.2-0.7
	l0,0.9l5,3.1l-2.1-0.3l0.6,0.6l-3.5-0.8l0,1.4l5.9,3.2l-2.5-0.3l0.7,0.6l-4.1-0.8l0.1,4.6l19.5,5.6l5.7-1.6l1.4-2.6h-1.3l2.3-4.1
	h-1.2l2-3.6h-1.1l2.3-4.2h-0.9l2.8-5.2l2.8,5.2h-0.9l2.3,4.2H264l2,3.6h-1.2l1.8,3.3l7.4-2.2l0.1-5.1l-4.1,0.8l0.7-0.6l-2.5,0.3
	l5.9-3.3l0-1.4l-3.5,0.7l0.6-0.6l-2.1,0.3l5-3.1l0-0.9l-3.2,0.7l0.5-0.5l-1.9,0.3l4.6-2.7l0-1.1l-2.9,0.6l0.5-0.5l-1.7,0.3l4.1-2.6
	v-0.6l-2.4,0.6l0.4-0.4l-1.4,0.2l3.4-2.3v-0.8l-1.9,0.6l0.3-0.4l-1.1,0.2l2.7-2.3l0-0.7l-1.3,0.6l0.2-0.4l-0.8,0.2l1.9-2.3l0-0.7
	l-0.9,0.5l0.9-2l0.9,2l-0.9-0.5v0.7l1.9,2.3l-0.8-0.2l0.2,0.4l-1.3-0.6l0,0.7l2.7,2.3l-1.1-0.2l0.3,0.4l-1.9-0.6l0,0.8l3.4,2.3
	l-1.4-0.2l0.4,0.4l-2.4-0.6v0.6l4.1,2.6l-1.7-0.3l0.5,0.5l-2.9-0.6l0,1.1l4.6,2.7l-1.9-0.3l0.5,0.5l-3.2-0.7l0,0.9l5,3.1l-2.1-0.3
	l0.6,0.6l-3.5-0.7l0,1.4l5.9,3.3l-2.5-0.3l0.7,0.6l-4.1-0.8l0.1,4.9l12.6-3.7l2.1-3.8H288l2.2-4.1h-1.2l2-3.6H290l2.3-4.2h-1
	l2.8-5.2l2.8,5.2h-1l2.3,4.2h-1.1l2,3.6H298l2.2,4.1h-1.3l0.2,0.3l6.8-2h-0.2l0.9-3.5h-1.8l5-20.4l2.8,11.4l2.1-3.8h-1.3l2.7-5H315
	l3.4-6.2l3.4,6.2h-1.2l2.7,5h-1.3l2.4,4.3H323l2.7,4.9h-1.6l0.8,1.5l9.6-2.8h0l2.4-4.3h-1.4l2.3-4.2h-1.2l2-3.7h-1.1l2.3-4.3h-1
	l2.9-5.3l2.9,5.3h-1l2.3,4.3h-1.1l2,3.7h-1.2l2.3,4.2h-1.4l0.4,0.7l13.8-4l0-2.9l-4.1,0.8l0.7-0.6l-2.5,0.3l5.9-3.3l0-1.4l-3.5,0.7
	l0.6-0.6l-2.1,0.3l5-3.1l0-0.9l-3.2,0.7l0.6-0.5l-1.9,0.3l4.6-2.7l0-1.1L358,89l0.5-0.5l-1.7,0.3l4.1-2.6v-0.6l-2.4,0.6l0.4-0.4
	l-1.4,0.2l3.4-2.3v-0.8l-1.9,0.6l0.3-0.4l-1.1,0.2l2.7-2.3l0-0.7l-1.3,0.6l0.2-0.4l-0.8,0.2l1.9-2.3l0-0.7l-0.9,0.5l0.9-2l0.9,2
	l-0.9-0.5v0.7l1.9,2.3l-0.8-0.2l0.2,0.4l-1.3-0.6l0,0.7l2.7,2.3l-1.1-0.2l0.3,0.4l-1.9-0.6l0,0.8l3.4,2.3l-1.4-0.2l0.4,0.4l-2.4-0.6
	v0.6l4.1,2.6l-1.7-0.3l0.5,0.5l-2.9-0.6l0,1.1l4.6,2.7l-1.9-0.3l0.5,0.5l-3.2-0.7l0,0.9l5,3.1l-2.1-0.3l0.6,0.6l-3.5-0.7l0,1.4
	l5.9,3.3l-2.5-0.3l0.7,0.6l-4.1-0.8l0,2.7l8.6-2.5l0.6-2.6h-1.4l4.2-17l4.2,17H376l0.2,0.8l3.3-1l10.2,3l2.1-3.9h-1.2l2-3.7h-1.1
	l2.3-4.3h-1l2.9-5.3l2.9,5.3h-1l2.3,4.3h-1.1l2,3.7h-1.2l2.3,4.2h-1.4l1.9,3.4l16.5,4.8v64.5H118.5z M199.8,120.6v-0.4h-1.5
	L199.8,120.6z M313.1,107.6l0.7-1.3h-1L313.1,107.6z M94.4,103.3l4.6-1.3l0-2.5l-4.1,0.8l0.7-0.6L94,99.8l1.5,2.8H94L94.4,103.3z
	 M132.3,101.3l0-1.8l-3.8,0.7L132.3,101.3z M390.9,100.1L390.9,100.1L390.9,100.1L390.9,100.1z M128.3,100.1l0.6-0.5l-1.7,0.2
	L128.3,100.1z M16.1,91l4.8-2.7l0-3.7l-4.1,0.8l0.7-0.6l-2.2,0.3l0.4,0.7h-1.2l2.2,4.1h-1.3L16.1,91z M21.6,87.9l5.2-2.9l-1.9-0.2
	l0.7,0.6l-4.1-0.8L21.6,87.9z M55.5,85.8V85h-1.4L55.5,85.8z M37.2,79.3L37.2,79.3L37.2,79.3L37.2,79.3z"/>
<linearGradient id="Unión_237_1_" gradientUnits="userSpaceOnUse" x1="-789.2921" y1="1142.251" x2="-789.2921" y2="1141.251" gradientTransform="matrix(419 0 0 -100.381 330922.875 114752.6016)">
	<stop  offset="0" style="stop-color:#FEAF66"/>
	<stop  offset="1" style="stop-color:#D03333"/>
</linearGradient>
<path id="Unión_237" class="st17" d="M282.2,172.8l21.8-6.1l2.8-5.2h-2.4l4.1-7.5h-2.2l3.6-6.6h-2l4.1-7.6h-1.7l5.1-9.4l5.1,9.4
	H319l4.2,7.6h-2l3.6,6.6h-2.2l3.6,6.6l6.7-1.9l0-3.1l-5.8,1.1l1-0.9l-3.5,0.4l8.4-4.6l0-2l-4.9,1.1l0.9-0.8l-3,0.4l7.1-4.4l0-1.3
	l-4.6,1l0.8-0.7l-2.8,0.4l6.6-3.9l0-1.6l-4.1,0.9l0.7-0.7l-2.4,0.4l5.8-3.7l0-0.9l-3.4,0.8l0.6-0.6l-2,0.3l4.8-3.3l0-1.1l-2.7,0.8
	l0.5-0.6l-1.6,0.3l3.8-3.3l0-1l-1.8,0.8l0.3-0.6l-1.1,0.3l2.7-3.3l0-1L332,125l1.3-2.9l1.3,2.9l-1.3-0.7l0,1l2.7,3.3l-1.1-0.3
	l0.3,0.6l-1.8-0.8l0,1l3.8,3.3l-1.6-0.3l0.5,0.6l-2.7-0.8l0,1.1l4.8,3.3l-2-0.3l0.6,0.6l-3.4-0.8l0,0.9l5.8,3.7l-2.4-0.4l0.7,0.7
	l-4.1-0.9l0,1.6l6.6,3.9l-2.8-0.4l0.8,0.7l-4.6-1l0,1.3l7.1,4.4l-3-0.4l0.9,0.8l-4.9-1.1l0,2l8.2,4.5l5.8-1.6h-1.1l3.1-5.8H348
	l3.1-5.6h-1.6l2.7-4.9h-1.5l3.1-5.6h-1.3l3.8-7l3.8,7h-1.3l3.1,5.6h-1.4l2.7,4.9h-1.6l3.1,5.6h-1.8l0.8,1.4l19.4-5.4h-6.1l3.1-5.8
	h-1.8l3.1-5.6h-1.6l2.7-4.9h-1.4l3.1-5.7h-1.3l3.8-7l3.8,7H389l3.1,5.7h-1.4l2.7,4.9h-1.6l3.1,5.6h-1.8l1.4,2.6l8.5-2.4l0.1-7.4
	l-5.8,1.1l1-0.9l-3.5,0.5l8.4-4.6l0-2l-4.9,1.1l0.9-0.8l-3,0.4l7.1-4.4l0-1.3l-4.6,0.9l0.8-0.7l-2.8,0.4l6.6-3.9l0-1.6l-4.1,0.9
	l0.7-0.7l-2.4,0.4l5.8-3.7v-0.9l-3.4,0.8l0.6-0.6l-2,0.3l4.8-3.3l0-1.1l-2.7,0.8l0.5-0.6l-1.6,0.3l3.8-3.3l0-1l-1.8,0.8l0.3-0.6
	l-1.1,0.3l2.6-3.3l0-1l-1.3,0.7l1.3-2.9l1.3,2.9l-1.3-0.7l0,1l2.7,3.3l-1.1-0.3l0.3,0.6l-1.8-0.8v1l3.8,3.3l-1.6-0.3l0.5,0.6
	l-2.7-0.8l0,1.1l4.8,3.3l-2-0.3l0.6,0.6l-3.4-0.8l0,0.9l5.8,3.7l-2.4-0.4l0.7,0.7l-4.1-0.9l0,1.6l6.6,3.9l-2.8-0.4l0.8,0.7l-4.6-0.9
	l0,1.3l7.1,4.4l-3-0.4l0.9,0.8l-4.9-1.1l0,2l8.4,4.6l-3.5-0.5l1,0.9l-5.8-1.1l0.1,7.1l15.1-4.2v57.9L282.2,172.8z M333.8,158.4
	l7.9-2.2l-3.1-0.4l1,0.9l-5.8-1.1L333.8,158.4z M0,122.5l8.1,3l6.6-3.7l0-2l-4.9,1.1l0.9-0.8l-3,0.4l7.1-4.4l0-1.3l-4.6,0.9L11,115
	l-2.8,0.4l6.6-3.9l0-1.6l-4.1,0.9l0.7-0.7l-2.4,0.4l5.8-3.7l0-0.9l-3.4,0.8l0.6-0.6l-2,0.3l4.8-3.3l0-1.1l-2.7,0.8l0.5-0.6l-1.6,0.3
	l3.8-3.3l0-1l-1.8,0.8l0.3-0.6l-1.1,0.3l2.7-3.3l0-1l-1.3,0.7l1.3-2.9l1.3,2.9l-1.3-0.7l0,1l2.7,3.3l-1.1-0.3l0.3,0.6l-1.8-0.8l0,1
	l3.8,3.3l-1.6-0.3l0.5,0.6l-2.7-0.8v1.1l4.8,3.3l-2-0.3l0.6,0.6l-3.4-0.8l0,0.9l5.8,3.7l-2.4-0.4l0.7,0.7l-4.1-0.9l0,1.6l6.6,3.9
	l-2.8-0.4l0.8,0.7l-4.6-0.9l0,1.3l7.1,4.4l-3-0.4l0.9,0.8l-4.9-1.1l0,2l8.4,4.6l-3.6-0.5l1,0.9l-5.8-1.1l0,2.5l9,3.3l2.3-4.3h-1.6
	l2.7-4.9h-1.4l3.1-5.7h-1.3l3.8-7l3.8,7h-1.3l3.1,5.7h-1.4l2.7,4.9h-1.6l3.1,5.6h-1.8l2.6,4.8l12.9,4.7l2.9-5.3h-1.6l2.7-4.9h-1.5
	l3.1-5.6h-1.3l3.8-7l3.8,7h-1.3l3.1,5.6h-1.4L69,137h-1.6l3.1,5.6h-1.8l3.2,5.8h-1.4l14.2,5.2l0.1-4.2l-5.8,1.1l1-0.9l-3.5,0.4
	l8.4-4.6l0-2l-4.9,1.1l0.9-0.8l-3,0.4l7.1-4.4l0-1.3l-4.6,1l0.8-0.7l-2.8,0.4l6.6-3.9l0-1.6l-4.1,0.9l0.7-0.7l-2.4,0.4l5.8-3.7
	l0-0.9l-3.4,0.8l0.6-0.6l-2,0.3l4.8-3.3l0-1.1l-2.7,0.8l0.5-0.6l-1.6,0.3L85,123v-1l-1.8,0.8l0.3-0.6l-1.1,0.3l2.7-3.3l0-1l-1.3,0.7
	l1.3-2.9l1.3,2.9l-1.3-0.7l0,1l2.6,3.3l-1.1-0.3l0.3,0.6l-1.8-0.8l0,1l3.8,3.3l-1.6-0.3l0.5,0.6l-2.7-0.8l0,1.1l4.8,3.3l-2-0.3
	l0.6,0.6l-3.4-0.8v0.9l5.8,3.7l-2.4-0.4l0.7,0.7l-4.1-0.9l0,1.6l6.6,3.9l-2.8-0.4l0.8,0.7l-4.6-1l0,1.3l7.1,4.4l-3-0.4l0.9,0.8
	l-4.9-1.1l0,2l8.4,4.6l-3.5-0.4l1,0.9l-5.8-1.1l0.1,4.6l7.8,2.9l0.8-1.5h-2.4l4.1-7.5h-2.2l3.6-6.6h-2l4.2-7.6h-1.7l5.1-9.4l5.2,9.4
	h-1.7l4.1,7.6h-1.9l3.6,6.6h-2.2l4.1,7.5h-2.4l4.2,7.7h-5.5l26.5,9.7L0,192.7V122.5z M55.5,142.9l0.2-0.3h-0.9L55.5,142.9z
	 M14.6,127.9l0-2.2l-3.9,0.8L14.6,127.9z M9.7,126.1l0.1-0.1l-0.2,0L9.7,126.1z"/>
</svg>
